<svg width="40" height="40" viewBox="0 0 40 40" fill="none" xmlns="http://www.w3.org/2000/svg">
<rect width="40" height="40" rx="20" fill="white"/>
<path d="M32 20C32 13.3726 26.6274 8 20 8C13.3726 8 8 13.3726 8 20C8 25.9895 12.3882 30.954 18.125 31.8542V23.4688H15.0781V20H18.125V17.3563C18.125 14.3488 19.9165 12.6875 22.6576 12.6875C23.9705 12.6875 25.3438 12.9219 25.3438 12.9219V15.875H23.8306C22.3399 15.875 21.875 16.8 21.875 17.749V20H25.2031L24.6711 23.4688H21.875V31.8542C27.6118 30.954 32 25.9895 32 20Z" fill="#2E7D32"/>
<path d="M24.6711 23.4688L25.2031 20H21.875V17.749C21.875 16.8 22.3399 15.875 23.8306 15.875H25.3438V12.9219C25.3438 12.9219 23.9705 12.6875 22.6576 12.6875C19.9165 12.6875 18.125 14.3488 18.125 17.3563V20H15.0781V23.4688H18.125V31.8542C18.7359 31.9501 19.3621 32 20 32C20.6379 32 21.264 31.9501 21.875 31.8542V23.4688H24.6711Z" fill="white"/>
</svg>
