<svg width="64" height="64" viewBox="0 0 64 64" fill="none" xmlns="http://www.w3.org/2000/svg">
<rect width="64" height="64" rx="32" fill="#2E7D32"/>
<path d="M44 32C44 25.3726 38.6274 20 32 20C25.3726 20 20 25.3726 20 32C20 37.9895 24.3882 42.954 30.125 43.8542V35.4688H27.0781V32H30.125V29.3563C30.125 26.3488 31.9165 24.6875 34.6576 24.6875C35.9705 24.6875 37.3438 24.9219 37.3438 24.9219V27.875H35.8306C34.3399 27.875 33.875 28.8 33.875 29.749V32H37.2031L36.6711 35.4688H33.875V43.8542C39.6118 42.954 44 37.9895 44 32Z" fill="white"/>
<path d="M36.6711 35.4688L37.2031 32H33.875V29.749C33.875 28.8 34.3399 27.875 35.8306 27.875H37.3438V24.9219C37.3438 24.9219 35.9705 24.6875 34.6576 24.6875C31.9165 24.6875 30.125 26.3488 30.125 29.3563V32H27.0781V35.4688H30.125V43.8542C30.7359 43.9501 31.3621 44 32 44C32.6379 44 33.264 43.9501 33.875 43.8542V35.4688H36.6711Z" fill="#2E7D32"/>
</svg>
