<svg width="19" height="19" viewBox="0 0 19 19" fill="none" xmlns="http://www.w3.org/2000/svg">
<path d="M15.9166 4.01866C15.0852 3.18526 13.9834 2.67652 12.8098 2.58452C11.6363 2.49246 10.4685 2.82312 9.5175 3.51679C8.5197 2.77466 7.27784 2.43812 6.0419 2.57499C4.8059 2.71186 3.6677 3.31192 2.8565 4.25439C2.0453 5.19686 1.62124 6.41166 1.66984 7.65426C1.7185 8.89679 2.2361 10.0748 3.11844 10.9509L7.9883 15.8287C8.3961 16.2301 8.94537 16.455 9.5175 16.455C10.0896 16.455 10.6389 16.2301 11.0467 15.8287L15.9166 10.9509C16.8321 10.0297 17.3461 8.78366 17.3461 7.48486C17.3461 6.18599 16.8321 4.93992 15.9166 4.01866ZM14.8108 9.86879L9.94097 14.7387C9.88557 14.7947 9.81957 14.839 9.7469 14.8694C9.67424 14.8997 9.59624 14.9153 9.5175 14.9153C9.4387 14.9153 9.36077 14.8997 9.2881 14.8694C9.21537 14.839 9.14944 14.7947 9.09404 14.7387L4.22417 9.84526C3.60917 9.21659 3.26477 8.37212 3.26477 7.49266C3.26477 6.61319 3.60917 5.76872 4.22417 5.14006C4.85084 4.52132 5.6961 4.17439 6.57677 4.17439C7.45744 4.17439 8.30264 4.52132 8.92937 5.14006C9.00224 5.21359 9.08897 5.27192 9.18457 5.31172C9.28017 5.35152 9.38264 5.37206 9.48617 5.37206C9.5897 5.37206 9.69217 5.35152 9.7877 5.31172C9.8833 5.27192 9.97004 5.21359 10.043 5.14006C10.6696 4.52132 11.5148 4.17439 12.3956 4.17439C13.2762 4.17439 14.1214 4.52132 14.7482 5.14006C15.3716 5.76046 15.7273 6.60039 15.739 7.47986C15.7508 8.35932 15.4176 9.20846 14.8109 9.84526L14.8108 9.86879Z" fill="#2E7D32"/>
</svg>
