<svg width="19" height="19" viewBox="0 0 19 19" fill="none" xmlns="http://www.w3.org/2000/svg">
<path d="M6.04215 2.57468C7.27799 2.4379 8.52001 2.77499 9.51774 3.51707C10.4687 2.82346 11.6363 2.49242 12.8097 2.58445C13.9832 2.67645 15.0849 3.18567 15.9162 4.01902C16.8316 4.94025 17.3458 6.18604 17.3459 7.48484C17.3458 8.78361 16.8317 10.0295 15.9162 10.9507L11.047 15.8286C10.6393 16.2299 10.0898 16.4555 9.51774 16.4555C8.94563 16.4555 8.39624 16.23 7.98844 15.8286L3.11832 10.9507C2.23626 10.0747 1.71886 8.897 1.67008 7.65476C1.62148 6.41218 2.04543 5.19683 2.8566 4.25437C3.6678 3.31197 4.8062 2.71155 6.04215 2.57468Z" fill="#2E7D32"/>
</svg>
