<svg width="64" height="64" viewBox="0 0 64 64" fill="none" xmlns="http://www.w3.org/2000/svg">
<rect width="64" height="64" rx="32" fill="#2E7D32"/>
<path d="M38.3787 24.4184C37.5755 24.4184 36.973 25.0209 36.973 25.8243C36.973 26.6276 37.5755 27.2301 38.3787 27.2301C39.182 27.2301 39.7844 26.6276 39.7844 25.8243C39.7844 25.0209 39.182 24.4184 38.3787 24.4184Z" fill="white"/>
<path d="M32.053 26.2259C28.7395 26.2259 26.1288 28.9372 26.1288 32.1506C26.1288 35.364 28.8399 38.0753 32.053 38.0753C35.266 38.0753 37.9771 35.364 37.9771 32.1506C37.9771 28.9372 35.3665 26.2259 32.053 26.2259ZM32.053 35.9665C29.9444 35.9665 28.2374 34.2594 28.2374 32.1506C28.2374 30.0418 29.9444 28.3347 32.053 28.3347C34.1616 28.3347 35.8685 30.0418 35.8685 32.1506C35.8685 34.2594 34.1616 35.9665 32.053 35.9665Z" fill="white"/>
<path d="M36.8726 20H27.3338C23.217 20 20.0039 23.2134 20.0039 27.2301V36.7699C20.0039 40.7866 23.217 44 27.2333 44H36.7722C40.7885 44 44.0016 40.7866 44.0016 36.7699V27.2301C44.102 23.2134 40.8889 20 36.8726 20ZM41.7926 36.8703C41.7926 39.5816 39.5836 41.8912 36.7722 41.8912H27.2333C24.5223 41.8912 22.2129 39.682 22.2129 36.8703V27.3305C22.2129 24.6192 24.4219 22.3096 27.2333 22.3096H36.7722C39.4832 22.3096 41.7926 24.5188 41.7926 27.3305V36.8703Z" fill="white"/>
</svg>
