<svg width="40" height="40" viewBox="0 0 40 40" fill="none" xmlns="http://www.w3.org/2000/svg">
<rect width="40" height="40" rx="20" fill="white"/>
<path d="M26.3788 12.4184C25.5755 12.4184 24.9731 13.0209 24.9731 13.8243C24.9731 14.6276 25.5755 15.2301 26.3788 15.2301C27.1821 15.2301 27.7845 14.6276 27.7845 13.8243C27.7845 13.0209 27.1821 12.4184 26.3788 12.4184Z" fill="#2E7D32"/>
<path d="M20.0531 14.2259C16.7396 14.2259 14.1289 16.9372 14.1289 20.1506C14.1289 23.364 16.84 26.0753 20.0531 26.0753C23.2661 26.0753 25.9772 23.364 25.9772 20.1506C25.9772 16.9372 23.3665 14.2259 20.0531 14.2259ZM20.0531 23.9665C17.9445 23.9665 16.2375 22.2594 16.2375 20.1506C16.2375 18.0418 17.9445 16.3347 20.0531 16.3347C22.1616 16.3347 23.8686 18.0418 23.8686 20.1506C23.8686 22.2594 22.1616 23.9665 20.0531 23.9665Z" fill="#2E7D32"/>
<path d="M24.8727 8H15.3338C11.2171 8 8.004 11.2134 8.004 15.2301V24.7699C8.004 28.7866 11.2171 32 15.2334 32H24.7723C28.7886 32 32.0017 28.7866 32.0017 24.7699V15.2301C32.1021 11.2134 28.889 8 24.8727 8ZM29.7927 24.8703C29.7927 27.5816 27.5837 29.8912 24.7723 29.8912H15.2334C12.5224 29.8912 10.213 27.682 10.213 24.8703V15.3305C10.213 12.6192 12.422 10.3096 15.2334 10.3096H24.7723C27.4833 10.3096 29.7927 12.5188 29.7927 15.3305V24.8703Z" fill="#2E7D32"/>
</svg>
