<svg width="19" height="19" viewBox="0 0 19 19" fill="none" xmlns="http://www.w3.org/2000/svg">
<path d="M9.5995 10.5226L10.3293 2.65902C10.3622 2.30518 10.0795 2 9.71887 2H3.61305C3.25244 2 2.96974 2.30518 3.0026 2.65902L4.0676 14.1341M4.0676 14.1341H7.73337M4.0676 14.1341L4.0676 16.2499C4.0676 16.6642 4.40837 17 4.82879 17H9.26433M3.06832 3.38873H10.2636M10.8617 10.5227H8.29045C8.00156 10.5227 7.76737 10.7534 7.76737 11.0381V12.6818H16.7407V11.0381C16.7407 10.7534 16.5065 10.5227 16.2176 10.5227H13.6463M12.0177 8.92892C12.1245 8.03864 12.6415 7.20748 13.49 6.72477M7.76737 17H5.56457V16.0902C5.56457 15.9191 5.70529 15.7805 5.8789 15.7805H7.45305C7.62665 15.7805 7.76737 15.9191 7.76737 16.0902V17ZM15.3662 17H9.14183C8.38274 17 7.76737 16.3936 7.76737 15.6456V13.3072C7.76737 12.9618 8.05152 12.6818 8.40208 12.6818H16.1059C16.4565 12.6818 16.7407 12.9618 16.7407 13.3072V15.6456C16.7407 16.3936 16.1253 17 15.3662 17ZM14.0176 14.1701H10.4904V15.5116H14.0176V14.1701ZM5.96765 9.09343C5.60462 8.73571 5.58031 8.16352 5.91174 7.77715L6.52699 7.05992C6.5997 6.97516 6.73224 6.97516 6.80495 7.05992L7.42017 7.77715C7.75163 8.16352 7.72731 8.73571 7.36426 9.09343C6.97859 9.47346 6.35332 9.47346 5.96765 9.09343ZM15.4101 4.56593C16.0276 4.63938 16.5746 4.90383 17 5.28931C16.6454 5.56209 16.3738 5.92822 16.2291 6.34794C15.8009 7.59005 14.5347 8.40873 13.1613 8.242C12.8375 8.20267 12.5331 8.11157 12.2554 7.97828C12.1885 7.67788 12.1711 7.36175 12.2094 7.03925C12.3929 5.49102 13.8285 4.37782 15.4101 4.56593Z" stroke="black" stroke-miterlimit="10" stroke-linecap="round" stroke-linejoin="round"/>
</svg>
