<svg width="64" height="64" viewBox="0 0 64 64" fill="none" xmlns="http://www.w3.org/2000/svg">
<rect width="64" height="64" rx="32" fill="#2E7D32"/>
<path d="M32.526 20.02C33.8362 20 35.1368 20.0104 36.4366 20C36.4799 21.6256 37.1394 23.0886 38.1887 24.1723L38.1871 24.1707C39.3164 25.188 40.7859 25.8475 42.4058 25.9596L42.4282 25.9612V29.9919C40.8979 29.9534 39.4588 29.6005 38.1614 28.9938L38.2271 29.021C37.5996 28.7193 37.0689 28.4095 36.5647 28.0638L36.6063 28.091C36.5967 31.0115 36.6159 33.9321 36.5863 36.8423C36.5039 38.3254 36.0108 39.678 35.2201 40.8073L35.2361 40.7825C33.9139 42.6762 31.7721 43.9192 29.3365 43.9928H29.3253C29.2269 43.9976 29.1108 44 28.994 44C27.6093 44 26.3151 43.6142 25.2122 42.9443L25.2442 42.9627C23.2369 41.755 21.8522 39.6884 21.5961 37.2849L21.5929 37.2521C21.5729 36.7518 21.5633 36.2516 21.5833 35.7618C21.9755 31.9368 25.1802 28.9778 29.0756 28.9778C29.5134 28.9778 29.9424 29.0154 30.3594 29.0866L30.3146 29.0802C30.3346 30.5601 30.2746 32.0408 30.2746 33.5207C29.936 33.3983 29.5454 33.327 29.138 33.327C27.6429 33.327 26.3711 34.2827 25.9005 35.6169L25.8933 35.6409C25.7869 35.9827 25.7252 36.3756 25.7252 36.7822C25.7252 36.9471 25.7356 37.1104 25.7549 37.2705L25.7533 37.2513C26.019 38.8888 27.4228 40.1246 29.1156 40.1246C29.1644 40.1246 29.2125 40.1238 29.2605 40.1214H29.2533C30.4242 40.0862 31.4407 39.4563 32.0154 38.5254L32.0234 38.511C32.2371 38.2133 32.3835 37.8531 32.4324 37.4618L32.4332 37.4505C32.5332 35.6601 32.4932 33.8801 32.5028 32.0896C32.5124 28.059 32.4932 24.0379 32.5228 20.0176L32.526 20.02Z" fill="white"/>
</svg>
