<svg width="40" height="40" viewBox="0 0 40 40" fill="none" xmlns="http://www.w3.org/2000/svg">
<rect width="40" height="40" rx="20" fill="white"/>
<path d="M20.5258 8.02001C21.836 8 23.1366 8.0104 24.4364 8C24.4796 9.62556 25.1391 11.0886 26.1884 12.1723L26.1868 12.1707C27.3161 13.188 28.7856 13.8475 30.4056 13.9596L30.428 13.9612V17.9919C28.8977 17.9534 27.4586 17.6005 26.1612 16.9938L26.2268 17.021C25.5993 16.7193 25.0687 16.4095 24.5644 16.0638L24.6061 16.091C24.5965 19.0115 24.6157 21.9321 24.5861 24.8423C24.5036 26.3254 24.0106 27.678 23.2198 28.8073L23.2358 28.7825C21.9136 30.6762 19.7718 31.9192 17.3363 31.9928H17.3251C17.2266 31.9976 17.1106 32 16.9937 32C15.6091 32 14.3149 31.6142 13.212 30.9443L13.244 30.9627C11.2366 29.755 9.85199 27.6884 9.59587 25.2849L9.59266 25.2521C9.57266 24.7518 9.56305 24.2516 9.58306 23.7618C9.97524 19.9368 13.1799 16.9778 17.0754 16.9778C17.5132 16.9778 17.9422 17.0154 18.3592 17.0866L18.3143 17.0802C18.3343 18.5601 18.2743 20.0408 18.2743 21.5207C17.9358 21.3983 17.5452 21.327 17.1378 21.327C15.6427 21.327 14.3709 22.2827 13.9003 23.6169L13.8931 23.6409C13.7866 23.9827 13.725 24.3756 13.725 24.7822C13.725 24.9471 13.7354 25.1104 13.7546 25.2705L13.753 25.2513C14.0187 26.8888 15.4226 28.1246 17.1154 28.1246C17.1642 28.1246 17.2122 28.1238 17.2602 28.1214H17.253C18.424 28.0862 19.4405 27.4563 20.0151 26.5254L20.0231 26.511C20.2368 26.2133 20.3833 25.8531 20.4321 25.4618L20.4329 25.4505C20.533 23.6601 20.493 21.8801 20.5026 20.0896C20.5122 16.059 20.493 12.0379 20.5226 8.01761L20.5258 8.02001Z" fill="#2E7D32"/>
</svg>
