<svg width="63" height="46" viewBox="0 0 63 46" fill="none" xmlns="http://www.w3.org/2000/svg">
<path d="M32.3061 15.9063C32.2821 18.0416 34.1919 19.2333 35.6317 19.9445C37.1109 20.6712 37.6067 21.1379 37.6016 21.7884C37.5913 22.784 36.421 23.223 35.3296 23.2403C33.4197 23.2715 32.3113 22.7199 31.4274 22.3036L30.7393 25.555C31.6266 25.967 33.2636 26.3252 34.9641 26.3434C38.9521 26.3434 41.5621 24.3504 41.5758 21.2662C41.5913 17.3495 36.2168 17.1335 36.2546 15.3842C36.2648 14.8508 36.7676 14.2854 37.8642 14.1405C38.4098 14.0686 39.9079 14.013 41.6102 14.8049L42.2759 11.6582C41.363 11.3218 40.1859 11 38.7238 11C34.971 11 32.3284 13.0174 32.3061 15.9063ZM48.692 11.2714C47.9644 11.2714 47.3484 11.7 47.0755 12.3599L41.3785 26.111H45.3647L46.1575 23.8959H51.0292L51.4873 26.111H55L51.9352 11.2714H48.692ZM49.2497 15.2801L50.3995 20.8534H47.2506L49.2497 15.2801ZM27.4738 11.2714L24.3336 26.111H28.1311L31.2714 11.2714H27.4738ZM21.8548 11.2714L17.903 21.372L16.3036 12.7841C16.1166 11.8248 15.3762 11.2714 14.5525 11.2714H8.09005L8 11.7025C9.32637 11.9939 10.834 12.4631 11.7459 12.9644C12.3054 13.2715 12.465 13.5386 12.6495 14.2681L15.6765 26.111H19.6919L25.8454 11.2714H21.8548Z" fill="url(#paint0_linear_734_4697)"/>
<path d="M37.7844 29.9046V34.9021C38.1129 34.9394 38.4939 34.9618 38.965 34.9618C39.943 34.9618 40.7196 34.7052 41.1974 34.2298C41.6599 33.7615 41.9217 33.0824 41.9217 32.2524C41.9217 31.4293 41.6599 30.8404 41.2043 30.4258C40.7642 30.0182 40.0992 29.7919 39.1665 29.7919C38.6509 29.7919 38.1807 29.8369 37.7844 29.9046ZM38.4347 34.4033V30.3799C38.6063 30.3426 38.8603 30.3122 39.1957 30.3122C40.5702 30.3122 41.2421 31.0746 41.2343 32.275C41.2343 33.6487 40.4878 34.4336 39.091 34.4336C38.838 34.4336 38.5986 34.4259 38.4347 34.4033Z" fill="url(#paint1_linear_734_4697)"/>
<path d="M42.6912 33.1501C42.6912 34.2524 43.3553 35 44.4681 35C45.043 35 45.4463 34.8717 45.6778 34.7658L45.5587 34.2906C45.3192 34.3956 45.0284 34.4788 44.5582 34.4788C43.8933 34.4788 43.333 34.1093 43.3184 33.2108H45.8572C45.8717 33.1353 45.8795 33.0373 45.8795 32.9011C45.8795 32.2299 45.5732 31.1882 44.3858 31.1882C43.333 31.1882 42.6912 32.0486 42.6912 33.1501ZM44.3334 31.6635C45.073 31.6635 45.2524 32.32 45.2446 32.7355H43.3252C43.3776 32.275 43.6616 31.6635 44.3334 31.6635Z" fill="url(#paint2_linear_734_4697)"/>
<path d="M46.88 29.5577V33.9732C46.88 34.2975 46.8654 34.6678 46.8508 34.9168H47.4101L47.4479 34.3201H47.4625C47.7387 34.7961 48.1575 35 48.68 35C49.4865 35 50.3076 34.3505 50.3076 33.0451C50.3076 31.9427 49.6805 31.1882 48.7769 31.1882C48.1943 31.1882 47.7765 31.4449 47.5448 31.8526H47.5303V29.5577H46.88ZM47.5595 33.6939C47.5372 33.6184 47.5303 33.5351 47.5303 33.4528V32.8031C47.5303 32.6973 47.5448 32.6072 47.5671 32.5238C47.7019 32.0261 48.1197 31.7086 48.5607 31.7086C49.2694 31.7086 49.6426 32.3356 49.6426 33.0676C49.6426 33.9055 49.2402 34.4718 48.5453 34.4718C48.0674 34.4718 47.6796 34.1544 47.5595 33.6939Z" fill="url(#paint3_linear_734_4697)"/>
<path d="M51.2343 30.2367C51.2343 30.4632 51.3904 30.6444 51.6298 30.6444C51.8905 30.6444 52.0476 30.4632 52.0476 30.2367C52.0476 30.0027 51.8837 29.8214 51.6444 29.8214C51.3981 29.8214 51.2343 30.0105 51.2343 30.2367ZM51.3158 34.9168H51.9731V31.2637H51.3158V34.9168Z" fill="url(#paint4_linear_734_4697)"/>
<path d="M53.3998 30.5838V31.2637H52.8404V31.7693H53.3998V33.7615C53.3998 34.1918 53.4745 34.517 53.6538 34.7208C53.8109 34.8943 54.0571 35 54.3634 35C54.6172 35 54.8189 34.9549 54.946 34.909L54.9159 34.4033C54.8189 34.4336 54.7143 34.4484 54.5349 34.4484C54.1695 34.4484 54.0424 34.1918 54.0424 33.739V31.7693H54.9829V31.2637H54.0424V30.3878L53.3998 30.5838Z" fill="url(#paint5_linear_734_4697)"/>
<defs>
<linearGradient id="paint0_linear_734_4697" x1="8.00001" y1="23" x2="55" y2="23" gradientUnits="userSpaceOnUse">
<stop stop-color="#2C244A"/>
<stop offset="0.0540673" stop-color="#2C244A"/>
<stop offset="0.360259" stop-color="#262B53"/>
<stop offset="0.683381" stop-color="#1E3D7D"/>
<stop offset="1" stop-color="#1D1D38"/>
</linearGradient>
<linearGradient id="paint1_linear_734_4697" x1="7.99965" y1="22.9998" x2="54.9997" y2="22.9998" gradientUnits="userSpaceOnUse">
<stop stop-color="#2C244A"/>
<stop offset="0.0540673" stop-color="#2C244A"/>
<stop offset="0.360259" stop-color="#262B53"/>
<stop offset="0.683381" stop-color="#1E3D7D"/>
<stop offset="1" stop-color="#1D1D38"/>
</linearGradient>
<linearGradient id="paint2_linear_734_4697" x1="7.99993" y1="23" x2="55.0004" y2="23" gradientUnits="userSpaceOnUse">
<stop stop-color="#2C244A"/>
<stop offset="0.0540673" stop-color="#2C244A"/>
<stop offset="0.360259" stop-color="#262B53"/>
<stop offset="0.683381" stop-color="#1E3D7D"/>
<stop offset="1" stop-color="#1D1D38"/>
</linearGradient>
<linearGradient id="paint3_linear_734_4697" x1="7.99947" y1="23" x2="55.0002" y2="23" gradientUnits="userSpaceOnUse">
<stop stop-color="#2C244A"/>
<stop offset="0.0540673" stop-color="#2C244A"/>
<stop offset="0.360259" stop-color="#262B53"/>
<stop offset="0.683381" stop-color="#1E3D7D"/>
<stop offset="1" stop-color="#1D1D38"/>
</linearGradient>
<linearGradient id="paint4_linear_734_4697" x1="8.00114" y1="23.0001" x2="54.9994" y2="23.0001" gradientUnits="userSpaceOnUse">
<stop stop-color="#2C244A"/>
<stop offset="0.0540673" stop-color="#2C244A"/>
<stop offset="0.360259" stop-color="#262B53"/>
<stop offset="0.683381" stop-color="#1E3D7D"/>
<stop offset="1" stop-color="#1D1D38"/>
</linearGradient>
<linearGradient id="paint5_linear_734_4697" x1="52.8404" y1="32.6939" x2="54.9828" y2="32.6939" gradientUnits="userSpaceOnUse">
<stop stop-color="#2C244A"/>
<stop offset="0.0540673" stop-color="#2C244A"/>
<stop offset="0.360259" stop-color="#262B53"/>
<stop offset="0.683381" stop-color="#1E3D7D"/>
<stop offset="1" stop-color="#1D1D38"/>
</linearGradient>
</defs>
</svg>
