<svg width="33" height="25" viewBox="0 0 33 25" fill="none" xmlns="http://www.w3.org/2000/svg">
<path d="M6.55228 0.280403C6.93077 0.261299 7.31032 0.233706 7.68881 0.262362C11.0663 0.265546 14.4449 0.26236 17.8223 0.263421C19.3406 0.270851 20.9122 0.595623 22.1685 1.48185C23.227 2.2163 23.9754 3.33495 24.3667 4.54701C24.6083 5.28783 24.7398 6.06473 24.7612 6.8427C24.758 10.1626 24.7623 13.4835 24.7591 16.8034C27.1989 19.1394 29.6441 21.4712 32.085 23.8062C32.1663 23.8858 32.2764 23.9887 32.2443 24.114C32.1855 24.2265 32.038 24.2371 31.9257 24.2498C23.8471 24.2477 15.7685 24.2498 7.69094 24.2498C6.27216 24.2572 4.81703 24.0482 3.54472 23.3933C2.80486 23.0144 2.14412 22.4784 1.63734 21.8225C0.78842 20.7304 0.362893 19.3602 0.269876 17.9964C0.236732 17.661 0.253838 17.3235 0.259184 16.987C0.259184 13.2702 0.259184 9.55337 0.259184 5.83654C0.286982 4.69666 0.615215 3.53767 1.32835 2.62916C2.04041 1.70473 3.08926 1.09021 4.18943 0.731475C4.95388 0.480997 5.75148 0.343023 6.55228 0.280403ZM5.13137 3.36361C4.59571 3.53661 4.10283 3.87199 3.79598 4.34641C3.48164 4.83039 3.33517 5.41625 3.35335 5.98938C3.35335 7.60687 3.35335 9.22436 3.35335 10.8418C4.77533 10.8418 6.19732 10.8429 7.62038 10.8418V8.52493C7.6161 8.14285 7.78717 7.75227 8.10471 7.52833C8.42439 7.29908 8.83281 7.23858 9.21985 7.24813C9.86776 7.24813 10.5157 7.24813 11.1636 7.24813C11.1668 5.89704 11.1625 4.54595 11.1657 3.19486C9.69349 3.19061 8.22125 3.19486 6.75008 3.19273C6.20694 3.14073 5.65098 3.19592 5.13137 3.36361ZM14.0407 3.19167C14.0343 4.54383 14.0386 5.89598 14.0386 7.24813C14.725 7.24919 15.4124 7.24813 16.0989 7.24813C16.4656 7.25025 16.8515 7.33092 17.1434 7.56335C17.4332 7.79048 17.5861 8.16195 17.5818 8.52387C17.5818 9.29653 17.5743 10.0692 17.5775 10.8418C19.0016 10.844 20.4258 10.8418 21.8488 10.8418V5.9119C21.8584 5.52026 21.7954 5.12544 21.6564 4.75822C21.4639 4.23922 21.0673 3.80301 20.5733 3.55041C19.9254 3.21608 19.1716 3.13011 18.4521 3.19273C16.982 3.19167 15.5119 3.19592 14.0418 3.19061L14.0407 3.19167ZM3.35441 13.6576C3.35334 15.3653 3.35441 17.0719 3.35441 18.7796C3.36617 19.1851 3.44636 19.5958 3.64309 19.9556C3.87723 20.3961 4.2771 20.7357 4.72936 20.9437C5.38048 21.2462 6.11393 21.3385 6.82599 21.3067C8.27257 21.3078 9.71915 21.3067 11.1647 21.3067C11.1647 19.9556 11.1657 18.6035 11.1647 17.2524C10.4772 17.2524 9.79078 17.2524 9.10438 17.2524C8.73766 17.2513 8.35169 17.1696 8.05981 16.9371C7.77006 16.709 7.61824 16.3375 7.62252 15.9745V13.6576C6.20053 13.6576 4.77747 13.6576 3.35441 13.6576ZM17.5722 13.8242C17.5679 14.5534 17.5711 15.2825 17.5711 16.0106C17.5829 16.3216 17.5027 16.6495 17.2856 16.883C17.0429 17.1367 16.6805 17.2471 16.3351 17.2428C15.5418 17.2396 14.7485 17.2471 13.9552 17.2386C13.937 17.4148 13.9509 17.5909 13.9466 17.7682C13.9456 18.9282 13.9498 20.0872 13.9445 21.2473C14.2813 21.26 14.6191 21.2494 14.9559 21.2526C18.3291 21.2505 21.7023 21.2568 25.0756 21.2494C23.6258 19.8038 22.1664 18.3689 20.7155 16.9244C19.6634 15.896 18.6328 14.8431 17.5722 13.8242Z" fill="white"/>
<path d="M6.55228 0.280403C6.93077 0.261299 7.31032 0.233706 7.68881 0.262362C11.0663 0.265546 14.4449 0.26236 17.8223 0.263421C19.3406 0.270851 20.9122 0.595623 22.1685 1.48185C23.227 2.2163 23.9754 3.33495 24.3667 4.54701C24.6083 5.28783 24.7398 6.06473 24.7612 6.8427C24.758 10.1626 24.7623 13.4835 24.7591 16.8034C27.1989 19.1394 29.6441 21.4712 32.085 23.8062C32.1663 23.8858 32.2764 23.9887 32.2443 24.114C32.1855 24.2265 32.038 24.2371 31.9257 24.2498C23.8471 24.2477 15.7685 24.2498 7.69094 24.2498C6.27216 24.2572 4.81703 24.0482 3.54472 23.3933C2.80486 23.0144 2.14412 22.4784 1.63734 21.8225C0.78842 20.7304 0.362893 19.3602 0.269876 17.9964C0.236732 17.661 0.253838 17.3235 0.259184 16.987C0.259184 13.2702 0.259184 9.55337 0.259184 5.83654C0.286982 4.69666 0.615215 3.53767 1.32835 2.62916C2.04041 1.70473 3.08926 1.09021 4.18943 0.731475C4.95388 0.480997 5.75148 0.343023 6.55228 0.280403ZM5.13137 3.36361C4.59571 3.53661 4.10283 3.87199 3.79598 4.34641C3.48164 4.83039 3.33517 5.41625 3.35335 5.98938C3.35335 7.60687 3.35335 9.22436 3.35335 10.8418C4.77533 10.8418 6.19732 10.8429 7.62038 10.8418V8.52493C7.6161 8.14285 7.78717 7.75227 8.10471 7.52833C8.42439 7.29908 8.83281 7.23858 9.21985 7.24813C9.86776 7.24813 10.5157 7.24813 11.1636 7.24813C11.1668 5.89704 11.1625 4.54595 11.1657 3.19486C9.69349 3.19061 8.22125 3.19486 6.75008 3.19273C6.20694 3.14073 5.65098 3.19592 5.13137 3.36361ZM14.0407 3.19167C14.0343 4.54383 14.0386 5.89598 14.0386 7.24813C14.725 7.24919 15.4124 7.24813 16.0989 7.24813C16.4656 7.25025 16.8515 7.33092 17.1434 7.56335C17.4332 7.79048 17.5861 8.16195 17.5818 8.52387C17.5818 9.29653 17.5743 10.0692 17.5775 10.8418C19.0016 10.844 20.4258 10.8418 21.8488 10.8418V5.9119C21.8584 5.52026 21.7954 5.12544 21.6564 4.75822C21.4639 4.23922 21.0673 3.80301 20.5733 3.55041C19.9254 3.21608 19.1716 3.13011 18.4521 3.19273C16.982 3.19167 15.5119 3.19592 14.0418 3.19061L14.0407 3.19167ZM3.35441 13.6576C3.35334 15.3653 3.35441 17.0719 3.35441 18.7796C3.36617 19.1851 3.44636 19.5958 3.64309 19.9556C3.87723 20.3961 4.2771 20.7357 4.72936 20.9437C5.38048 21.2462 6.11393 21.3385 6.82599 21.3067C8.27257 21.3078 9.71915 21.3067 11.1647 21.3067C11.1647 19.9556 11.1657 18.6035 11.1647 17.2524C10.4772 17.2524 9.79078 17.2524 9.10438 17.2524C8.73766 17.2513 8.35169 17.1696 8.05981 16.9371C7.77006 16.709 7.61824 16.3375 7.62252 15.9745V13.6576C6.20053 13.6576 4.77747 13.6576 3.35441 13.6576ZM17.5722 13.8242C17.5679 14.5534 17.5711 15.2825 17.5711 16.0106C17.5829 16.3216 17.5027 16.6495 17.2856 16.883C17.0429 17.1367 16.6805 17.2471 16.3351 17.2428C15.5418 17.2396 14.7485 17.2471 13.9552 17.2386C13.937 17.4148 13.9509 17.5909 13.9466 17.7682C13.9456 18.9282 13.9498 20.0872 13.9445 21.2473C14.2813 21.26 14.6191 21.2494 14.9559 21.2526C18.3291 21.2505 21.7023 21.2568 25.0756 21.2494C23.6258 19.8038 22.1664 18.3689 20.7155 16.9244C19.6634 15.896 18.6328 14.8431 17.5722 13.8242Z" fill="white"/>
<path d="M17.5722 13.8242C18.6328 14.8431 19.6634 15.896 20.7155 16.9244C22.1664 18.3689 23.6258 19.8038 25.0756 21.2494C21.7023 21.2568 18.3291 21.2505 14.9559 21.2526C14.6191 21.2494 14.2813 21.26 13.9445 21.2473C13.9498 20.0872 13.9456 18.9282 13.9466 17.7682C13.9509 17.5909 13.937 17.4148 13.9552 17.2386C14.7485 17.2471 15.5418 17.2396 16.3351 17.2428C16.6805 17.2471 17.0429 17.1367 17.2856 16.883C17.5027 16.6495 17.5829 16.3216 17.5711 16.0106C17.5711 15.2825 17.5679 14.5534 17.5722 13.8242Z" fill="#54A69A"/>
<path d="M3.35441 13.6576C3.35334 15.3653 3.35441 17.0719 3.35441 18.7796C3.36617 19.1851 3.44636 19.5958 3.64309 19.9556C3.87723 20.3961 4.2771 20.7357 4.72936 20.9437C5.38048 21.2462 6.11393 21.3385 6.82599 21.3067C8.27257 21.3078 9.71915 21.3067 11.1647 21.3067C11.1647 19.9556 11.1657 18.6035 11.1647 17.2524H9.10438C8.73766 17.2513 8.35169 17.1696 8.05981 16.9371C7.77006 16.709 7.61824 16.3375 7.62252 15.9745V13.6576H3.35441Z" fill="#1A3763"/>
<path d="M5.13137 3.36361C4.59571 3.53661 4.10283 3.87199 3.79598 4.34641C3.48164 4.83039 3.33517 5.41625 3.35335 5.98938V10.8418C4.77533 10.8418 6.19732 10.8429 7.62038 10.8418V8.52493C7.6161 8.14285 7.78717 7.75227 8.10471 7.52833C8.42439 7.29908 8.83281 7.23858 9.21985 7.24813H11.1636C11.1668 5.89704 11.1625 4.54595 11.1657 3.19486C9.69349 3.19061 8.22125 3.19486 6.75008 3.19273C6.20694 3.14073 5.65098 3.19592 5.13137 3.36361Z" fill="#1A3763"/>
<path d="M14.0407 3.19167C14.0343 4.54383 14.0386 5.89598 14.0386 7.24813C14.725 7.24919 15.4124 7.24813 16.0989 7.24813C16.4656 7.25025 16.8515 7.33092 17.1434 7.56335C17.4332 7.79048 17.5861 8.16195 17.5818 8.52387C17.5818 9.29653 17.5743 10.0692 17.5775 10.8418C19.0016 10.844 20.4258 10.8418 21.8488 10.8418V5.9119C21.8584 5.52026 21.7954 5.12544 21.6564 4.75822C21.4639 4.23922 21.0673 3.80301 20.5733 3.55041C19.9254 3.21608 19.1716 3.13011 18.4521 3.19273C16.982 3.19167 15.5119 3.19592 14.0418 3.19061L14.0407 3.19167Z" fill="#1A3763"/>
<path d="M3.35335 5.98938C3.33517 5.41625 3.48164 4.83039 3.79598 4.34641C4.10283 3.87199 4.59571 3.53661 5.13137 3.36361C5.65098 3.19592 6.20694 3.14073 6.75008 3.19273C8.22125 3.19486 9.69349 3.19061 11.1657 3.19486C11.1625 4.54595 11.1668 5.89704 11.1636 7.24813M3.35335 5.98938C3.35335 7.60687 3.35335 9.22436 3.35335 10.8418M3.35335 5.98938V10.8418M3.35335 10.8418C4.77533 10.8418 6.19732 10.8429 7.62038 10.8418V8.52493C7.6161 8.14285 7.78717 7.75227 8.10471 7.52833C8.42439 7.29908 8.83281 7.23858 9.21985 7.24813M9.21985 7.24813C9.86776 7.24813 10.5157 7.24813 11.1636 7.24813M9.21985 7.24813H11.1636M3.35441 13.6576C3.35334 15.3653 3.35441 17.0719 3.35441 18.7796C3.36617 19.1851 3.44636 19.5958 3.64309 19.9556C3.87723 20.3961 4.2771 20.7357 4.72936 20.9437C5.38048 21.2462 6.11393 21.3385 6.82599 21.3067C8.27257 21.3078 9.71915 21.3067 11.1647 21.3067C11.1647 19.9556 11.1657 18.6035 11.1647 17.2524M3.35441 13.6576C4.77747 13.6576 6.20053 13.6576 7.62252 13.6576M3.35441 13.6576H7.62252M11.1647 17.2524C10.4772 17.2524 9.79078 17.2524 9.10438 17.2524M11.1647 17.2524H9.10438M9.10438 17.2524C8.73766 17.2513 8.35169 17.1696 8.05981 16.9371C7.77006 16.709 7.61824 16.3375 7.62252 15.9745V13.6576M6.55228 0.280403C6.93077 0.261299 7.31032 0.233706 7.68881 0.262362C11.0663 0.265546 14.4449 0.26236 17.8223 0.263421C19.3406 0.270851 20.9122 0.595623 22.1685 1.48185C23.227 2.2163 23.9754 3.33495 24.3667 4.54701C24.6083 5.28783 24.7398 6.06473 24.7612 6.8427C24.758 10.1626 24.7623 13.4835 24.7591 16.8034C27.1989 19.1394 29.6441 21.4712 32.085 23.8062C32.1663 23.8858 32.2764 23.9887 32.2443 24.114C32.1855 24.2265 32.038 24.2371 31.9257 24.2498C23.8471 24.2477 15.7685 24.2498 7.69094 24.2498C6.27216 24.2572 4.81703 24.0482 3.54472 23.3933C2.80486 23.0144 2.14412 22.4784 1.63734 21.8225C0.78842 20.7304 0.362893 19.3602 0.269876 17.9964C0.236732 17.661 0.253838 17.3235 0.259184 16.987C0.259184 13.2702 0.259184 9.55337 0.259184 5.83654C0.286982 4.69666 0.615215 3.53767 1.32835 2.62916C2.04041 1.70473 3.08926 1.09021 4.18943 0.731475C4.95388 0.480997 5.75148 0.343023 6.55228 0.280403ZM14.0407 3.19167C14.0343 4.54383 14.0386 5.89598 14.0386 7.24813C14.725 7.24919 15.4124 7.24813 16.0989 7.24813C16.4656 7.25025 16.8515 7.33092 17.1434 7.56335C17.4332 7.79048 17.5861 8.16195 17.5818 8.52387C17.5818 9.29653 17.5743 10.0692 17.5775 10.8418C19.0016 10.844 20.4258 10.8418 21.8488 10.8418V5.9119C21.8584 5.52026 21.7954 5.12544 21.6564 4.75822C21.4639 4.23922 21.0673 3.80301 20.5733 3.55041C19.9254 3.21608 19.1716 3.13011 18.4521 3.19273C16.982 3.19167 15.5119 3.19592 14.0418 3.19061L14.0407 3.19167ZM17.5722 13.8242C17.5679 14.5534 17.5711 15.2825 17.5711 16.0106C17.5829 16.3216 17.5027 16.6495 17.2856 16.883C17.0429 17.1367 16.6805 17.2471 16.3351 17.2428C15.5418 17.2396 14.7485 17.2471 13.9552 17.2386C13.937 17.4148 13.9509 17.5909 13.9466 17.7682C13.9456 18.9282 13.9498 20.0872 13.9445 21.2473C14.2813 21.26 14.6191 21.2494 14.9559 21.2526C18.3291 21.2505 21.7023 21.2568 25.0756 21.2494C23.6258 19.8038 22.1664 18.3689 20.7155 16.9244C19.6634 15.896 18.6328 14.8431 17.5722 13.8242Z" stroke="#1A3763" stroke-width="0.5"/>
</svg>
