<svg width="238" height="227" viewBox="0 0 238 227" fill="none" xmlns="http://www.w3.org/2000/svg">
<path d="M61.6232 92.825V62.1237C61.6232 51.9456 65.6664 42.1843 72.8634 34.9873C80.0605 27.7903 89.8217 23.7471 99.9998 23.7471C110.178 23.7471 119.939 27.7903 127.136 34.9873C134.333 42.1843 138.376 51.9456 138.376 62.1237V92.825M46.2725 92.825H153.727C153.727 92.825 169.078 92.825 169.078 108.176V161.903C169.078 161.903 169.078 177.254 153.727 177.254H46.2725C46.2725 177.254 30.9219 177.254 30.9219 161.903V108.176C30.9219 108.176 30.9219 92.825 46.2725 92.825Z" stroke="black" stroke-width="4" stroke-linecap="round" stroke-linejoin="round"/>
<rect x="119" y="127" width="100" height="100" rx="50" fill="#2E7D32"/>
<path d="M199.701 155.893L157.486 198.107L138.298 178.919" stroke="white" stroke-width="4" stroke-linecap="round" stroke-linejoin="round"/>
</svg>
