<svg width="40" height="40" viewBox="0 0 40 40" fill="none" xmlns="http://www.w3.org/2000/svg">
<path d="M20 0C8.95431 0 0 8.95431 0 20C0 31.0473 8.95431 40 20 40C31.0457 40 40 31.0473 40 20C40 8.95431 31.0449 0 20 0ZM21.1468 8.11046C22.054 7.04569 23.5882 6.25624 24.8536 6.20508C25.0152 7.68 24.4207 9.15898 23.5436 10.2229C22.6631 11.2861 21.2231 12.1137 19.8091 12.0041C19.6191 10.56 20.3314 9.05259 21.1468 8.11046ZM28.3484 28.2518C27.2983 29.786 26.2099 31.3145 24.4954 31.3454C22.8093 31.3771 22.2668 30.3464 20.3411 30.3464C18.4138 30.3464 17.8112 31.3153 16.2152 31.3779C14.5608 31.4396 13.3003 29.7235 12.242 28.1941C10.0776 25.0688 8.4264 19.3616 10.6469 15.5086C11.7466 13.5935 13.717 12.385 15.8538 12.3517C17.4814 12.3216 19.0156 13.4481 20.0081 13.4481C21.003 13.4481 22.8678 12.095 24.8292 12.2948C25.6495 12.3281 27.9529 12.6246 29.4327 14.789C29.3141 14.8638 26.6818 16.3947 26.7135 19.5825C26.7484 23.3909 30.054 24.6554 30.0922 24.6749C30.0613 24.761 29.5618 26.4788 28.3484 28.2518Z" fill="black"/>
</svg>
