<svg width="40" height="40" viewBox="0 0 40 40" fill="none" xmlns="http://www.w3.org/2000/svg">
<path d="M39.6875 20.4797C39.6875 19.1289 39.5562 17.7346 39.3374 16.4275H20.3884V24.1397H31.2414C30.8038 26.6233 29.3596 28.802 27.2153 30.1963L33.6921 35.2071C37.4994 31.6777 39.6875 26.5362 39.6875 20.4797Z" fill="#4280EF"/>
<path d="M20.3884 40C25.8149 40 30.3662 38.2135 33.6921 35.1635L27.2153 30.1963C25.421 31.4163 23.1016 32.1134 20.3884 32.1134C15.1369 32.1134 10.717 28.5841 9.09775 23.8783L2.44591 28.9762C5.85935 35.7299 12.7738 40 20.3884 40Z" fill="#34A353"/>
<path d="M9.09775 23.8347C8.26627 21.3511 8.26627 18.6496 9.09775 16.166L2.44591 11.0245C-0.398635 16.6889 -0.398635 23.3554 2.44591 28.9762L9.09775 23.8347Z" fill="#F6B704"/>
<path d="M20.3884 7.93089C23.2329 7.88732 26.0337 8.97662 28.0905 10.9374L33.8234 5.18585C30.1911 1.78722 25.3773 -0.0428117 20.3884 0.00076046C12.7738 0.00076046 5.85935 4.27083 2.44591 11.0245L9.09775 16.166C10.717 11.4167 15.1369 7.93089 20.3884 7.93089Z" fill="#E54335"/>
</svg>
