<svg width="1418" height="1288" viewBox="0 0 1418 1288" fill="none" xmlns="http://www.w3.org/2000/svg">
<path d="M957 5V10C957 45.3462 985.654 74 1021 74H1370.5C1393.97 74 1413 93.0279 1413 116.5C1413 139.972 1393.97 159 1370.5 159H858.992C835.247 159 815.997 178.247 815.992 201.992C815.988 225.744 835.241 245 858.992 245H1191.99C1227.33 245 1255.99 273.651 1255.99 308.995L1256 385.995C1256 421.343 1227.34 450 1192 450H69C33.6538 450 5 478.654 5 514V1283" stroke="#2E7D32" stroke-width="10" stroke-linecap="round"/>
</svg>
