<svg width="521" height="520" viewBox="0 0 521 520" fill="none" xmlns="http://www.w3.org/2000/svg">
<path d="M239.011 519.729L239.22 516.609L239.462 516.625C239.696 517.498 240.09 518.175 240.643 518.658C241.197 519.141 241.819 519.406 242.511 519.452C243.172 519.497 243.735 519.347 244.2 519.002C244.664 518.661 245.01 518.164 245.237 517.511C245.465 516.858 245.602 516.181 245.649 515.48C245.706 514.632 245.656 513.881 245.498 513.228C245.341 512.575 245.051 512.083 244.627 511.753C244.199 511.423 243.678 511.237 243.065 511.196C242.852 511.182 242.633 511.189 242.408 511.218C242.178 511.25 241.943 511.302 241.702 511.374L241.579 513.214C241.556 513.562 241.564 513.788 241.606 513.891C241.646 513.999 241.74 514.099 241.887 514.192C242.029 514.285 242.207 514.338 242.42 514.352L242.649 514.368L242.633 514.609L238.332 514.321L238.348 514.079C238.676 514.079 238.907 514.049 239.042 513.988C239.173 513.931 239.278 513.827 239.358 513.675C239.403 513.595 239.436 513.394 239.458 513.072L239.581 511.231C240.164 511.017 240.766 510.867 241.388 510.782C242.006 510.692 242.643 510.67 243.3 510.714C244.14 510.77 244.831 510.93 245.373 511.194C245.91 511.461 246.379 511.794 246.781 512.193C247.178 512.595 247.48 513.037 247.688 513.519C247.953 514.14 248.06 514.822 248.01 515.566C247.921 516.898 247.377 517.991 246.38 518.846C245.383 519.702 244.176 520.082 242.757 519.987C242.318 519.957 241.924 519.896 241.576 519.803C241.387 519.755 241.085 519.634 240.67 519.44C240.25 519.25 240 519.153 239.922 519.148C239.8 519.139 239.684 519.175 239.574 519.255C239.463 519.34 239.356 519.503 239.253 519.745L239.011 519.729Z" fill="#2E7D32"/>
<path d="M229.228 517.999L229.672 514.415L229.497 514.393C228.938 514.324 228.512 514.449 228.217 514.769C227.923 515.088 227.699 515.585 227.545 516.261L227.298 516.23L227.869 511.621L228.116 511.652C228.106 512.16 228.165 512.585 228.294 512.926C228.419 513.267 228.585 513.505 228.792 513.64C228.999 513.78 229.312 513.876 229.732 513.928L230.04 511.448C230.1 510.964 230.117 510.665 230.092 510.552C230.062 510.438 229.995 510.34 229.891 510.257C229.787 510.174 229.609 510.116 229.358 510.085L228.833 510.02C228.01 509.918 227.329 510.027 226.788 510.347C226.243 510.666 225.814 511.201 225.501 511.954L225.261 511.924L226.004 509.175L233.612 510.118L233.583 510.358L233.29 510.322C233.035 510.291 232.824 510.311 232.657 510.382C232.537 510.429 232.437 510.522 232.359 510.662C232.298 510.759 232.24 511.029 232.186 511.471L231.468 517.261C231.418 517.659 231.399 517.905 231.409 517.999C231.434 518.156 231.499 518.282 231.606 518.379C231.755 518.521 231.973 518.609 232.259 518.645L232.551 518.681L232.521 518.921L225.153 518.007L225.476 515.404L225.722 515.435C225.769 516.087 225.89 516.565 226.085 516.871C226.276 517.176 226.571 517.419 226.97 517.6C227.203 517.708 227.652 517.803 228.319 517.886L229.228 517.999Z" fill="#2E7D32"/>
<path d="M210.782 515.651L211.203 513.288L211.435 513.329C211.475 513.899 211.558 514.317 211.683 514.583C211.808 514.853 212.003 515.085 212.27 515.279C212.419 515.385 212.698 515.474 213.106 515.547L213.756 515.663L214.957 508.927C215.037 508.481 215.063 508.197 215.035 508.077C215.004 507.956 214.925 507.84 214.798 507.729C214.667 507.622 214.477 507.546 214.228 507.501L213.938 507.45L213.98 507.211L218.553 508.027L218.51 508.265L218.22 508.213C217.967 508.168 217.755 508.177 217.585 508.239C217.462 508.28 217.356 508.367 217.265 508.501C217.2 508.596 217.128 508.862 217.05 509.3L215.849 516.036L216.48 516.149C217.068 516.254 217.518 516.205 217.828 516.004C218.264 515.723 218.588 515.269 218.802 514.642L219.047 514.686L218.625 517.049L210.782 515.651Z" fill="#2E7D32"/>
<path d="M195.427 503.254L195.488 503.019L199.978 504.179L199.918 504.413L199.633 504.34C199.384 504.275 199.172 504.268 198.997 504.317C198.872 504.348 198.761 504.428 198.665 504.556C198.592 504.645 198.5 504.905 198.389 505.336L196.93 510.986C196.817 511.425 196.769 511.705 196.787 511.827C196.805 511.949 196.876 512.068 196.999 512.186C197.116 512.306 197.295 512.397 197.536 512.459L197.821 512.533L197.761 512.767L193.27 511.608L193.331 511.373L193.616 511.447C193.865 511.511 194.077 511.519 194.252 511.469C194.377 511.439 194.489 511.36 194.59 511.232C194.662 511.143 194.754 510.883 194.866 510.452L196.324 504.803C196.438 504.364 196.485 504.083 196.467 503.961C196.445 503.839 196.375 503.717 196.258 503.597C196.135 503.479 195.953 503.389 195.712 503.327L195.427 503.254Z" fill="#2E7D32"/>
<path d="M184.761 509.184L182.211 502.633L181.081 506.275C180.924 506.784 180.89 507.15 180.98 507.374C181.105 507.678 181.404 507.898 181.878 508.036L181.806 508.267L179.007 507.399L179.079 507.168C179.451 507.233 179.711 507.248 179.86 507.211C180.002 507.178 180.135 507.089 180.257 506.944C180.374 506.803 180.495 506.532 180.619 506.132L182.807 499.078L183.02 499.144L186.561 507.975L188.231 502.59C188.382 502.102 188.374 501.739 188.206 501.5C188.034 501.259 187.805 501.094 187.517 501.005L187.317 500.943L187.389 500.712L190.394 501.644L190.322 501.875C189.855 501.735 189.5 501.73 189.259 501.861C189.017 501.991 188.827 502.281 188.687 502.731L186.833 508.71L186.944 508.991C187.053 509.272 187.166 509.469 187.281 509.582C187.397 509.696 187.582 509.797 187.838 509.885L187.766 510.116L184.761 509.184Z" fill="#2E7D32"/>
<path d="M158.872 499.839L159.774 497.614L159.992 497.703C159.913 498.269 159.908 498.694 159.975 498.981C160.041 499.271 160.184 499.538 160.405 499.783C160.529 499.918 160.783 500.064 161.167 500.219L161.779 500.468L164.351 494.127C164.522 493.707 164.606 493.435 164.604 493.312C164.598 493.187 164.545 493.058 164.444 492.923C164.338 492.79 164.168 492.676 163.934 492.581L163.661 492.471L163.752 492.246L168.055 493.992L167.964 494.217L167.692 494.106C167.453 494.009 167.244 493.974 167.064 494C166.936 494.014 166.814 494.077 166.698 494.19C166.614 494.269 166.488 494.514 166.321 494.926L163.749 501.267L164.343 501.508C164.897 501.732 165.346 501.778 165.692 501.646C166.176 501.461 166.588 501.084 166.927 500.516L167.157 500.609L166.255 502.834L158.872 499.839Z" fill="#2E7D32"/>
<path d="M149.195 495.618C147.896 495.061 147.035 494.198 146.614 493.029C146.188 491.858 146.257 490.677 146.82 489.487C147.301 488.47 148.022 487.716 148.982 487.224C150.256 486.572 151.612 486.587 153.051 487.267C154.493 487.949 155.378 488.966 155.704 490.316C155.961 491.384 155.839 492.448 155.338 493.508C154.775 494.699 153.902 495.499 152.719 495.909C151.53 496.321 150.356 496.224 149.195 495.618ZM149.303 495.206C150.037 495.552 150.772 495.442 151.508 494.874C152.111 494.406 152.684 493.596 153.228 492.445C153.875 491.077 154.113 489.952 153.942 489.07C153.823 488.455 153.462 488.004 152.859 487.719C152.453 487.527 152.067 487.465 151.702 487.534C151.235 487.622 150.775 487.896 150.321 488.357C149.865 488.821 149.426 489.499 149.005 490.39C148.503 491.45 148.227 492.289 148.176 492.907C148.124 493.528 148.2 494.02 148.405 494.383C148.606 494.743 148.905 495.017 149.303 495.206Z" fill="#2E7D32"/>
<path d="M139.685 490.8L135.666 488.606L135.782 488.393L135.983 488.503C136.286 488.668 136.512 488.749 136.662 488.747C136.807 488.746 136.934 488.704 137.044 488.62C137.151 488.534 137.325 488.27 137.568 487.826L139.649 484.013C140.03 483.317 140.23 482.827 140.25 482.545C140.266 482.261 140.194 481.978 140.035 481.697C139.875 481.416 139.612 481.175 139.244 480.975C138.823 480.745 138.414 480.643 138.017 480.67C137.614 480.698 137.249 480.839 136.922 481.093C136.59 481.344 136.199 481.883 135.748 482.71L134.014 485.885C133.824 486.233 133.724 486.502 133.716 486.691C133.707 486.88 133.742 487.033 133.822 487.151C133.946 487.334 134.165 487.51 134.479 487.682L134.363 487.894L131.67 486.424L131.786 486.211L131.947 486.299C132.165 486.418 132.371 486.474 132.565 486.465C132.758 486.456 132.935 486.382 133.097 486.241C133.213 486.146 133.358 485.939 133.532 485.622L135.146 482.665C135.646 481.75 136.068 481.123 136.412 480.785C136.752 480.444 137.248 480.23 137.901 480.145C138.554 480.059 139.285 480.237 140.092 480.678C140.766 481.046 141.237 481.42 141.506 481.8C141.874 482.319 142.057 482.826 142.054 483.322C142.052 483.817 141.874 484.389 141.521 485.035L139.44 488.848C139.195 489.295 139.068 489.586 139.06 489.721C139.049 489.859 139.087 489.994 139.174 490.126C139.261 490.258 139.47 490.412 139.801 490.588L139.685 490.8Z" fill="#2E7D32"/>
<path d="M119.448 479.258L121.071 476.647L121.287 476.781C121.027 477.564 121.006 478.275 121.225 478.914C121.443 479.554 121.834 480.048 122.397 480.398C122.868 480.69 123.383 480.823 123.944 480.797C124.504 480.771 125.011 480.596 125.464 480.271C126.045 479.857 126.549 479.307 126.975 478.622C127.394 477.948 127.691 477.281 127.866 476.619C128.039 475.961 128.032 475.377 127.846 474.866C127.658 474.359 127.276 473.926 126.698 473.567C126.224 473.272 125.726 473.106 125.204 473.07C124.679 473.031 124.04 473.129 123.288 473.365L123.692 472.715C124.388 472.537 125.028 472.49 125.612 472.576C126.189 472.663 126.783 472.896 127.395 473.276C128.198 473.776 128.813 474.381 129.239 475.092C129.66 475.801 129.854 476.564 129.82 477.379C129.781 478.192 129.55 478.94 129.127 479.621C128.68 480.34 128.069 480.905 127.295 481.317C126.516 481.726 125.698 481.911 124.84 481.87C123.978 481.828 123.188 481.583 122.47 481.136C121.94 480.807 121.452 480.345 121.006 479.749C120.748 479.404 120.573 479.202 120.48 479.145C120.362 479.071 120.234 479.05 120.095 479.083C119.951 479.116 119.808 479.22 119.664 479.392L119.448 479.258Z" fill="#2E7D32"/>
<path d="M114.406 470.077L115.989 467.832C116.25 467.461 116.394 467.215 116.42 467.095C116.443 466.972 116.42 466.834 116.353 466.68C116.28 466.526 116.141 466.378 115.938 466.235L115.698 466.065L115.837 465.867L119.627 468.54L119.488 468.738L119.247 468.569C119.037 468.42 118.841 468.338 118.66 468.323C118.532 468.307 118.401 468.342 118.265 468.428C118.166 468.486 117.988 468.697 117.732 469.061L114.369 473.829C114.107 474.2 113.964 474.445 113.938 474.565C113.911 474.686 113.935 474.822 114.008 474.976C114.076 475.13 114.211 475.278 114.414 475.422L114.655 475.591L114.515 475.789L110.725 473.116L110.865 472.918L111.105 473.088C111.315 473.236 111.511 473.318 111.692 473.334C111.82 473.349 111.953 473.315 112.092 473.232C112.192 473.174 112.37 472.963 112.626 472.6L114.074 470.547L111.513 468.741L110.066 470.794C109.804 471.165 109.66 471.41 109.634 471.53C109.608 471.651 109.632 471.788 109.705 471.941C109.776 472.097 109.913 472.247 110.116 472.391L110.351 472.557L110.212 472.754L106.427 470.085L106.567 469.887L106.802 470.053C107.016 470.204 107.211 470.286 107.389 470.299C107.517 470.315 107.65 470.281 107.789 470.197C107.889 470.139 108.066 469.929 108.323 469.565L111.686 464.797C111.947 464.426 112.091 464.181 112.117 464.06C112.143 463.94 112.121 463.801 112.05 463.645C111.976 463.492 111.838 463.343 111.635 463.2L111.4 463.034L111.539 462.836L115.324 465.506L115.184 465.703L114.949 465.537C114.735 465.387 114.54 465.305 114.362 465.292C114.234 465.276 114.101 465.31 113.962 465.394C113.863 465.452 113.685 465.662 113.428 466.026L111.845 468.271L114.406 470.077Z" fill="#2E7D32"/>
<path d="M89.7403 448.586L100.104 457.472L99.5849 458.078L89.2209 449.192L89.7403 448.586Z" fill="#2E7D32"/>
<path d="M74.6342 441.785L77.2436 439.242L77.0656 439.059C76.7916 438.778 76.5258 438.59 76.268 438.494C76.0102 438.398 75.722 438.387 75.4034 438.46C75.0817 438.53 74.7325 438.712 74.3555 439.006L74.1957 438.842L77.3861 435.733L77.5458 435.897C77.0009 436.544 76.7625 437.093 76.8307 437.544C76.8927 437.995 77.0866 438.387 77.4122 438.722L77.5903 438.904L79.5344 437.01C79.8593 436.693 80.0455 436.478 80.0932 436.365C80.1379 436.248 80.1413 436.108 80.1033 435.944C80.0592 435.78 79.9503 435.609 79.7769 435.431L79.5714 435.22L79.7448 435.051L82.9816 438.373L82.8082 438.541L82.6028 438.331C82.4232 438.146 82.2459 438.03 82.0707 437.981C81.9479 437.943 81.812 437.953 81.6632 438.013C81.5548 438.052 81.3413 438.226 81.0227 438.537L76.8439 442.609C76.5191 442.926 76.3329 443.141 76.2851 443.254C76.2374 443.368 76.2356 443.506 76.2798 443.67C76.3177 443.834 76.4235 444.005 76.5969 444.183L76.8024 444.394L76.6291 444.563L71.4063 439.204L73.2287 437.428L73.4159 437.62C73.0306 438.081 72.8232 438.502 72.7936 438.884C72.7609 439.263 72.8683 439.664 73.1157 440.086C73.2515 440.319 73.5659 440.689 74.059 441.195L74.6342 441.785Z" fill="#2E7D32"/>
<path d="M64.348 431.601C63.3793 430.572 62.9354 429.437 63.0163 428.197C63.0943 426.953 63.6294 425.898 64.6214 425.032C65.469 424.292 66.4312 423.889 67.5081 423.823C68.9359 423.734 70.1732 424.289 71.22 425.488C72.2698 426.691 72.6741 427.976 72.4331 429.344C72.2424 430.426 71.7052 431.352 70.8216 432.123C69.8295 432.99 68.7094 433.374 67.4611 433.277C66.2067 433.18 65.169 432.621 64.348 431.601ZM64.6117 431.267C65.1452 431.878 65.8631 432.07 66.7654 431.844C67.5045 431.656 68.3536 431.143 69.3128 430.306C70.4527 429.311 71.1203 428.375 71.3157 427.498C71.453 426.886 71.3022 426.329 70.8634 425.826C70.568 425.488 70.2392 425.277 69.877 425.194C69.4144 425.088 68.8829 425.156 68.2824 425.396C67.6787 425.64 67.0056 426.085 66.2632 426.734C65.3796 427.505 64.791 428.164 64.4975 428.709C64.2007 429.258 64.0739 429.739 64.1169 430.153C64.1571 430.564 64.322 430.935 64.6117 431.267Z" fill="#2E7D32"/>
<path d="M57.1106 413.426L59.7727 411.777L64.61 417.992L64.419 418.141L64.2382 417.909C64.0802 417.706 63.9168 417.57 63.7481 417.503C63.6303 417.451 63.4941 417.446 63.3396 417.489C63.2276 417.516 62.996 417.665 62.645 417.939L58.0404 421.522C57.6825 421.801 57.4736 421.994 57.4136 422.101C57.3536 422.209 57.3364 422.347 57.3621 422.515C57.3816 422.682 57.4678 422.863 57.6204 423.059L57.8012 423.292L57.6102 423.44L54.7054 419.708L54.8964 419.56L55.1335 419.864C55.2915 420.067 55.4549 420.203 55.6235 420.27C55.7414 420.322 55.8789 420.328 56.036 420.289C56.1481 420.263 56.3796 420.113 56.7307 419.84L61.1907 416.368C61.5486 416.09 61.7614 415.891 61.8291 415.772C61.8933 415.656 61.9026 415.518 61.857 415.361C61.821 415.25 61.6745 415.03 61.4173 414.7L60.9633 414.116C60.6741 413.745 60.3676 413.486 60.044 413.34C59.7204 413.194 59.3478 413.141 58.9263 413.182C58.5022 413.219 57.9519 413.371 57.2754 413.638L57.1106 413.426Z" fill="#2E7D32"/>
<path d="M49.2702 402.437L52.016 400.931L56.5168 407.394L56.3182 407.532L56.15 407.291C56.003 407.08 55.847 406.936 55.6821 406.859C55.5672 406.801 55.4315 406.79 55.275 406.824C55.1617 406.845 54.9225 406.982 54.5575 407.236L49.7693 410.571C49.3971 410.83 49.1782 411.012 49.1126 411.116C49.0469 411.22 49.0225 411.356 49.0392 411.525C49.0499 411.693 49.1263 411.879 49.2683 412.083L49.4365 412.325L49.2379 412.463L46.5352 408.582L46.7338 408.444L46.9543 408.761C47.1014 408.972 47.2573 409.116 47.4222 409.192C47.5371 409.25 47.6741 409.264 47.8331 409.233C47.9464 409.212 48.1856 409.075 48.5506 408.821L53.1885 405.591C53.5607 405.332 53.7837 405.144 53.8576 405.029C53.9279 404.917 53.9445 404.78 53.9073 404.62C53.8772 404.508 53.7426 404.28 53.5033 403.937L53.0809 403.33C52.8117 402.944 52.5195 402.669 52.204 402.506C51.8886 402.343 51.5194 402.271 51.0963 402.289C50.6708 402.304 50.1132 402.426 49.4235 402.657L49.2702 402.437Z" fill="#2E7D32"/>
<path d="M38.7441 396.915C37.9587 395.739 37.7083 394.547 37.9928 393.337C38.275 392.124 38.9768 391.172 40.0983 390.481C41.0563 389.891 42.0719 389.652 43.145 389.765C44.5678 389.913 45.6964 390.665 46.531 392.02C47.3679 393.379 47.5545 394.714 47.0909 396.024C46.7244 397.058 46.0416 397.883 45.0427 398.499C43.9213 399.189 42.753 399.383 41.5379 399.082C40.3168 398.779 39.3855 398.056 38.7441 396.915ZM39.0594 396.629C39.4847 397.319 40.161 397.628 41.0884 397.553C41.8483 397.49 42.7704 397.125 43.8547 396.457C45.1433 395.663 45.9563 394.85 46.2937 394.018C46.5301 393.437 46.4734 392.862 46.1236 392.294C45.888 391.912 45.5986 391.65 45.2551 391.508C44.8163 391.327 44.2809 391.306 43.649 391.444C43.0133 391.585 42.2759 391.913 41.4367 392.43C40.4378 393.045 39.7486 393.598 39.369 394.087C38.9857 394.579 38.7812 395.033 38.7553 395.449C38.7271 395.86 38.8285 396.254 39.0594 396.629Z" fill="#2E7D32"/>
<path d="M27.2758 376.205L27.4897 376.091C27.5788 376.232 27.6846 376.334 27.8071 376.397C27.9295 376.46 28.0824 376.493 28.2658 376.494C28.3243 376.493 28.6873 376.456 29.3547 376.384L37.1242 375.413L37.2437 375.639L33.2209 380.258L39.4059 379.72L39.5192 379.933L34.4866 385.902C33.9819 386.505 33.6897 386.894 33.6099 387.069C33.5302 387.245 33.5441 387.462 33.6517 387.721L33.4378 387.834L31.637 384.436L31.8508 384.322C32.0035 384.592 32.1429 384.752 32.269 384.804C32.3891 384.854 32.5051 384.849 32.6168 384.79C32.7633 384.712 33.0234 384.454 33.3974 384.014L36.386 380.461L32.7627 380.804L32.1019 381.569C31.7411 381.987 31.5111 382.284 31.4118 382.46C31.3088 382.638 31.2581 382.808 31.26 382.97C31.2598 383.128 31.3241 383.328 31.4527 383.571L31.2388 383.684L29.2267 379.887L29.4406 379.773C29.5853 380.037 29.7076 380.217 29.8073 380.312C29.8772 380.378 29.9571 380.418 30.0471 380.429C30.1333 380.443 30.2168 380.428 30.2977 380.385C30.3864 380.338 30.6121 380.108 30.9749 379.693L33.9293 376.299L29.8942 376.801C29.4759 376.85 29.195 376.893 29.0516 376.929C28.9081 376.966 28.7824 377.013 28.6745 377.07C28.5165 377.154 28.4218 377.273 28.3903 377.428C28.355 377.585 28.4141 377.817 28.5677 378.126L28.3538 378.239L27.2758 376.205Z" fill="#2E7D32"/>
<path d="M21.8621 364.526L20.1027 360.298L20.3262 360.205L20.4141 360.417C20.5465 360.735 20.6721 360.94 20.7908 361.032C20.9038 361.122 21.0296 361.169 21.1681 361.173C21.305 361.173 21.6069 361.075 22.0739 360.881L26.084 359.212C26.8167 358.907 27.2793 358.651 27.4716 358.443C27.6622 358.232 27.7832 357.966 27.8347 357.647C27.8861 357.328 27.8314 356.976 27.6706 356.589C27.4863 356.146 27.231 355.811 26.9047 355.583C26.5726 355.353 26.1997 355.234 25.7857 355.227C25.3701 355.215 24.7275 355.391 23.8578 355.753L20.5182 357.143C20.1518 357.295 19.906 357.442 19.7808 357.584C19.6556 357.726 19.5871 357.868 19.5753 358.01C19.5581 358.229 19.6182 358.504 19.7556 358.835L19.5322 358.928L18.3534 356.095L18.5769 356.002L18.6472 356.171C18.7427 356.401 18.8686 356.573 19.0249 356.687C19.1812 356.802 19.3662 356.855 19.5798 356.846C19.7305 356.845 19.9729 356.774 20.307 356.635L23.4172 355.341C24.3795 354.941 25.1008 354.716 25.5812 354.667C26.0599 354.614 26.5806 354.759 27.1434 355.101C27.7061 355.443 28.1643 356.039 28.5178 356.888C28.8127 357.597 28.946 358.184 28.9176 358.649C28.8794 359.284 28.7043 359.794 28.3922 360.179C28.08 360.564 27.5838 360.898 26.9033 361.181L22.8933 362.85C22.4223 363.046 22.1413 363.193 22.0503 363.293C21.9553 363.394 21.9004 363.523 21.8856 363.68C21.8708 363.837 21.9374 364.088 22.0856 364.433L21.8621 364.526Z" fill="#2E7D32"/>
<path d="M14.1933 345.394L16.9536 344.332L17.0437 344.585C16.3881 344.953 15.9324 345.447 15.6765 346.066C15.4151 346.683 15.3812 347.262 15.5748 347.804C15.7244 348.223 15.9561 348.516 16.27 348.681C16.5783 348.845 16.8782 348.874 17.1698 348.77C17.3546 348.704 17.5035 348.602 17.6164 348.465C17.7669 348.277 17.8897 348.017 17.9848 347.687C18.0514 347.446 18.1325 346.914 18.2282 346.093C18.3597 344.944 18.5781 344.123 18.8835 343.629C19.1904 343.14 19.619 342.797 20.1693 342.601C20.8675 342.351 21.5667 342.41 22.2669 342.775C22.9615 343.139 23.4584 343.739 23.7575 344.577C23.8514 344.84 23.9134 345.098 23.9436 345.351C23.9738 345.604 23.9781 345.934 23.9563 346.34C23.9446 346.566 23.9614 346.743 24.0069 346.87C24.045 346.977 24.1264 347.075 24.2511 347.165C24.3758 347.255 24.5355 347.307 24.7303 347.321L24.8117 347.548L21.6575 348.675L21.5762 348.447C22.3987 347.949 22.9524 347.36 23.2373 346.68C23.5166 345.997 23.55 345.357 23.3373 344.762C23.1731 344.302 22.9173 343.981 22.57 343.799C22.2212 343.614 21.8805 343.58 21.5478 343.699C21.3507 343.769 21.1788 343.891 21.0321 344.064C20.8839 344.232 20.7659 344.453 20.6778 344.725C20.5857 344.999 20.503 345.454 20.4296 346.092C20.3272 346.985 20.2039 347.645 20.0599 348.071C19.9158 348.498 19.7138 348.859 19.4539 349.156C19.1925 349.448 18.8667 349.664 18.4766 349.804C17.8113 350.041 17.1573 349.999 16.5146 349.678C15.8719 349.356 15.4178 348.824 15.1524 348.08C15.0556 347.809 14.9946 347.535 14.9694 347.257C14.9497 347.046 14.9585 346.779 14.9958 346.455C15.0275 346.129 15.0235 345.911 14.984 345.8C14.9458 345.693 14.8829 345.62 14.7952 345.582C14.7075 345.544 14.5288 345.543 14.2593 345.579L14.1933 345.394Z" fill="#2E7D32"/>
<path d="M12.7539 317.701L16.1985 330.911L15.4263 331.113L11.9817 317.902L12.7539 317.701Z" fill="#2E7D32"/>
<path d="M2.62084 298.089L5.70739 297.589L5.74608 297.828C4.94905 298.253 4.37769 298.79 4.03202 299.438C3.68634 300.086 3.56892 300.752 3.67977 301.437C3.78573 302.091 4.05902 302.605 4.49965 302.98C4.93596 303.356 5.49808 303.581 6.186 303.655C6.87391 303.729 7.56441 303.71 8.25748 303.598C9.09692 303.462 9.81701 303.243 10.4177 302.943C11.0185 302.642 11.4318 302.249 11.6577 301.761C11.883 301.27 11.9464 300.721 11.8481 300.114C11.814 299.903 11.7576 299.691 11.679 299.478C11.5954 299.262 11.4917 299.045 11.368 298.826L9.54705 299.121C9.20267 299.177 8.98481 299.237 8.89346 299.3C8.79782 299.364 8.7213 299.478 8.6639 299.642C8.60582 299.802 8.59385 299.987 8.62801 300.198L8.66461 300.424L8.42569 300.463L7.73658 296.207L7.9755 296.169C8.04931 296.488 8.13111 296.707 8.2209 296.825C8.30569 296.939 8.43115 297.018 8.59727 297.062C8.68534 297.087 8.88865 297.074 9.20721 297.023L11.0281 296.728C11.3684 297.247 11.6502 297.8 11.8733 298.387C12.1 298.969 12.266 299.584 12.3713 300.234C12.5059 301.065 12.5058 301.774 12.3712 302.362C12.2316 302.945 12.013 303.478 11.7154 303.959C11.4128 304.436 11.0504 304.831 10.6281 305.142C10.0828 305.54 9.44213 305.798 8.706 305.917C7.38873 306.131 6.201 305.848 5.1428 305.07C4.0846 304.291 3.44187 303.2 3.21461 301.797C3.1442 301.362 3.1152 300.965 3.12761 300.605C3.13138 300.41 3.18089 300.088 3.27616 299.64C3.36642 299.188 3.40528 298.923 3.39273 298.846C3.37321 298.725 3.31203 298.62 3.20921 298.531C3.10208 298.442 2.91885 298.375 2.65953 298.328L2.62084 298.089Z" fill="#2E7D32"/>
<path d="M2.09981 288.168L5.69106 287.792L5.67269 287.616C5.6142 287.057 5.39615 286.67 5.01853 286.455C4.64091 286.24 4.10584 286.134 3.41329 286.136L3.38745 285.889L8.00663 285.406L8.03247 285.653C7.53479 285.758 7.13432 285.911 6.83104 286.114C6.52731 286.313 6.3328 286.528 6.24749 286.761C6.15785 286.994 6.13501 287.32 6.179 287.741L8.66424 287.481C9.15002 287.43 9.44508 287.38 9.54943 287.33C9.65333 287.275 9.73408 287.187 9.79169 287.067C9.84929 286.947 9.86495 286.762 9.83865 286.51L9.78356 285.983C9.69741 285.159 9.43765 284.52 9.00428 284.065C8.57046 283.606 7.95186 283.309 7.14848 283.174L7.12332 282.933L9.96884 283.037L10.766 290.662L10.5252 290.687L10.4946 290.394C10.4679 290.138 10.4008 289.937 10.2934 289.79C10.2209 289.684 10.1077 289.608 9.95391 289.563C9.84483 289.526 9.56908 289.531 9.12668 289.577L3.32343 290.184C2.92441 290.225 2.68049 290.262 2.59167 290.293C2.4444 290.352 2.33568 290.445 2.26552 290.571C2.1613 290.748 2.12416 290.98 2.15409 291.266L2.18469 291.559L1.94397 291.584L1.17203 284.2L3.78089 283.927L3.80673 284.174C3.18231 284.367 2.74331 284.593 2.48976 284.851C2.23575 285.106 2.06546 285.448 1.97887 285.878C1.92619 286.129 1.93476 286.589 2.00459 287.257L2.09981 288.168Z" fill="#2E7D32"/>
<path d="M0.226118 269.668L2.62366 269.545L2.63568 269.78C2.0897 269.948 1.70128 270.123 1.47043 270.305C1.23523 270.487 1.05334 270.73 0.92476 271.033C0.854829 271.203 0.830443 271.495 0.851602 271.908L0.885344 272.568L7.71865 272.219C8.1716 272.196 8.45346 272.157 8.56424 272.103C8.67481 272.045 8.76996 271.942 8.84972 271.794C8.9249 271.642 8.95603 271.439 8.94311 271.187L8.92807 270.893L9.16979 270.88L9.40698 275.519L9.16527 275.531L9.15024 275.237C9.1371 274.98 9.08079 274.776 8.98131 274.623C8.91455 274.513 8.80546 274.429 8.65404 274.372C8.54706 274.329 8.27146 274.319 7.82723 274.342L0.993919 274.691L1.02666 275.332C1.05717 275.928 1.20563 276.355 1.47204 276.612C1.84419 276.973 2.35947 277.187 3.01787 277.254L3.03056 277.502L0.633026 277.624L0.226118 269.668Z" fill="#2E7D32"/>
<path d="M8.84074 251.913L9.08269 251.919L8.96587 256.555L8.72392 256.549L8.73134 256.255C8.73782 255.998 8.69726 255.79 8.60966 255.63C8.55149 255.515 8.44906 255.426 8.30237 255.361C8.19895 255.31 7.9249 255.279 7.48023 255.268L1.64721 255.121C1.19382 255.11 0.909851 255.127 0.795295 255.172C0.68074 255.217 0.58018 255.312 0.493614 255.458C0.402799 255.6 0.354261 255.795 0.348 256.044L0.340586 256.338L0.0986328 256.332L0.215452 251.696L0.457404 251.702L0.44999 251.996C0.443509 252.253 0.484066 252.461 0.571662 252.621C0.629839 252.735 0.732215 252.827 0.878791 252.897C0.982211 252.947 1.25626 252.978 1.70093 252.989L7.53395 253.136C7.98734 253.148 8.27131 253.131 8.38587 253.086C8.50053 253.036 8.60327 252.941 8.69409 252.799C8.78065 252.653 8.82706 252.456 8.83333 252.207L8.84074 251.913Z" fill="#2E7D32"/>
<path d="M0.657683 242.859L6.4646 238.897L2.66123 238.618C2.13063 238.579 1.76624 238.629 1.56805 238.767C1.30047 238.957 1.15299 239.299 1.1256 239.791L0.884224 239.773L1.09879 236.85L1.34017 236.868C1.36055 237.246 1.4051 237.502 1.4738 237.639C1.53848 237.77 1.65509 237.879 1.82363 237.966C1.98814 238.048 2.27915 238.104 2.69668 238.135L10.062 238.676L10.0457 238.898L2.2412 244.339L7.8647 244.752C8.37355 244.789 8.7256 244.699 8.92084 244.482C9.1164 244.26 9.22519 243.999 9.24722 243.699L9.26255 243.49L9.50393 243.508L9.27356 246.646L9.03218 246.628C9.06359 246.141 8.98846 245.794 8.8068 245.589C8.62514 245.383 8.29945 245.263 7.82973 245.228L1.58648 244.77L1.33773 244.942C1.08914 245.112 0.922615 245.266 0.838142 245.404C0.753669 245.542 0.697185 245.745 0.66869 246.014L0.42731 245.997L0.657683 242.859Z" fill="#2E7D32"/>
<path d="M3.92234 215.529L6.29316 215.906L6.25614 216.139C5.68725 216.189 5.27101 216.28 5.00741 216.41C4.7395 216.54 4.51117 216.739 4.32243 217.01C4.21886 217.161 4.13451 217.441 4.06938 217.85L3.96552 218.503L10.7227 219.578C11.1706 219.65 11.4543 219.671 11.5738 219.641C11.694 219.607 11.8085 219.526 11.9172 219.398C12.0224 219.264 12.0948 219.073 12.1346 218.823L12.1809 218.532L12.4199 218.57L11.6898 223.157L11.4507 223.119L11.497 222.828C11.5375 222.574 11.5248 222.362 11.459 222.193C11.4166 222.071 11.3273 221.967 11.1911 221.879C11.0953 221.815 10.8278 221.748 10.3885 221.678L3.63131 220.602L3.53053 221.235C3.43661 221.825 3.49329 222.274 3.70058 222.581C3.98977 223.011 4.44949 223.327 5.07972 223.529L5.04064 223.774L2.66982 223.397L3.92234 215.529Z" fill="#2E7D32"/>
<path d="M5.85213 205.15C6.1014 203.758 6.74793 202.725 7.79171 202.05C8.83643 201.372 10.0022 201.172 11.2891 201.452C12.3885 201.692 13.2858 202.224 13.981 203.049C14.9034 204.142 15.1955 205.467 14.8571 207.022C14.5177 208.581 13.7269 209.672 12.4847 210.295C11.503 210.786 10.4391 210.907 9.29281 210.658C8.00593 210.378 7.02927 209.708 6.36284 208.648C5.69308 207.583 5.52284 206.417 5.85213 205.15ZM6.27789 205.162C6.10544 205.954 6.37905 206.646 7.09875 207.235C7.69024 207.716 8.60813 208.092 9.85239 208.363C11.331 208.685 12.4806 208.663 13.3011 208.297C13.8742 208.042 14.2316 207.589 14.3735 206.937C14.469 206.498 14.4422 206.108 14.2931 205.768C14.102 205.334 13.7309 204.947 13.1797 204.608C12.6243 204.269 11.8651 203.994 10.9021 203.785C9.75583 203.535 8.87615 203.456 8.26306 203.545C7.6457 203.634 7.18368 203.819 6.87699 204.101C6.57124 204.378 6.37153 204.732 6.27789 205.162Z" fill="#2E7D32"/>
<path d="M8.4005 194.798L9.63194 190.387L9.86506 190.453L9.80348 190.673C9.71083 191.005 9.68262 191.244 9.71884 191.39C9.75203 191.53 9.82191 191.645 9.92847 191.733C10.0362 191.818 10.3337 191.928 10.8209 192.064L15.0043 193.232C15.7688 193.446 16.2907 193.53 16.5702 193.486C16.8509 193.438 17.11 193.304 17.3477 193.085C17.5854 192.866 17.7606 192.555 17.8732 192.152C18.0022 191.69 18.0089 191.269 17.8934 190.888C17.7749 190.501 17.5552 190.178 17.2343 189.916C16.9147 189.65 16.3012 189.39 15.3939 189.137L11.9099 188.164C11.5276 188.058 11.2435 188.021 11.0574 188.055C10.8713 188.089 10.7297 188.158 10.6327 188.263C10.4833 188.425 10.3606 188.678 10.2644 189.022L10.0313 188.957L10.8564 186.002L11.0895 186.068L11.0402 186.244C10.9734 186.483 10.966 186.696 11.018 186.883C11.07 187.07 11.1827 187.225 11.356 187.351C11.4751 187.443 11.709 187.538 12.0576 187.635L15.3023 188.541C16.3062 188.821 17.0119 189.091 17.4196 189.35C17.8285 189.604 18.1483 190.04 18.379 190.657C18.6098 191.273 18.6014 192.025 18.354 192.911C18.1475 193.65 17.8893 194.194 17.5793 194.542C17.1569 195.017 16.704 195.31 16.2206 195.419C15.7373 195.529 15.1407 195.484 14.4308 195.286L10.2474 194.118C9.75598 193.981 9.44384 193.923 9.31098 193.945C9.17393 193.966 9.05094 194.033 8.94201 194.148C8.83307 194.262 8.73027 194.5 8.63361 194.863L8.4005 194.798Z" fill="#2E7D32"/>
<path d="M15.0811 172.478L17.991 173.471L17.9086 173.712C17.0872 173.635 16.3898 173.775 15.8164 174.132C15.243 174.489 14.8493 174.982 14.6354 175.609C14.4566 176.133 14.4432 176.666 14.5953 177.206C14.7474 177.746 15.0325 178.2 15.4506 178.569C15.9851 179.041 16.6342 179.408 17.3978 179.668C18.149 179.924 18.8665 180.063 19.5504 180.084C20.2301 180.104 20.7979 179.966 21.2537 179.67C21.7053 179.373 22.0409 178.902 22.2605 178.258C22.4407 177.73 22.4898 177.207 22.4079 176.691C22.3274 176.171 22.0874 175.57 21.6881 174.89L22.4124 175.138C22.7431 175.776 22.9326 176.388 22.981 176.976C23.0266 177.559 22.9333 178.19 22.701 178.871C22.3955 179.767 21.9443 180.502 21.3473 181.077C20.7518 181.648 20.0528 182.009 19.2506 182.159C18.4497 182.305 17.6695 182.249 16.9101 181.99C16.1094 181.717 15.421 181.249 14.845 180.588C14.2704 179.922 13.906 179.166 13.7519 178.321C13.5992 177.472 13.6594 176.647 13.9325 175.846C14.1338 175.256 14.4743 174.676 14.954 174.107C15.2321 173.778 15.3887 173.562 15.4239 173.459C15.4689 173.327 15.4602 173.197 15.3976 173.07C15.3324 172.937 15.1994 172.82 14.9987 172.72L15.0811 172.478Z" fill="#2E7D32"/>
<path d="M22.8878 165.495L25.4323 166.531C25.8523 166.702 26.1239 166.787 26.247 166.785C26.3718 166.78 26.5017 166.727 26.6367 166.626C26.7694 166.52 26.8826 166.352 26.9763 166.122L27.0873 165.849L27.3115 165.941L25.5623 170.236L25.3382 170.145L25.4492 169.872C25.5462 169.634 25.582 169.425 25.5564 169.245C25.5426 169.117 25.4785 168.996 25.3642 168.884C25.2854 168.8 25.04 168.674 24.628 168.506L19.2241 166.306C18.804 166.135 18.5324 166.05 18.4093 166.052C18.2862 166.053 18.1584 166.107 18.0257 166.213C17.8906 166.314 17.7763 166.479 17.6825 166.709L17.5715 166.982L17.3473 166.89L19.0965 162.595L19.3206 162.686L19.2096 162.959C19.1126 163.197 19.0769 163.406 19.1025 163.586C19.1162 163.714 19.1795 163.837 19.2921 163.953C19.371 164.037 19.6164 164.163 20.0283 164.331L22.3547 165.278L23.5364 162.376L21.21 161.429C20.79 161.258 20.5184 161.173 20.3953 161.175C20.2722 161.176 20.1443 161.23 20.0117 161.336C19.875 161.441 19.7598 161.608 19.666 161.838L19.5575 162.105L19.3333 162.014L21.08 157.724L21.3042 157.816L21.1956 158.082C21.0969 158.324 21.0612 158.534 21.0885 158.71C21.1022 158.838 21.1654 158.96 21.2781 159.076C21.3569 159.16 21.6023 159.286 22.0143 159.454L27.4183 161.654C27.8383 161.825 28.1099 161.91 28.233 161.908C28.3561 161.907 28.486 161.854 28.6227 161.749C28.7554 161.643 28.8686 161.475 28.9623 161.245L29.0709 160.978L29.295 161.07L27.5483 165.359L27.3242 165.268L27.4327 165.001C27.5314 164.759 27.5671 164.55 27.5399 164.374C27.5261 164.246 27.4629 164.123 27.3502 164.007C27.2714 163.923 27.026 163.797 26.614 163.629L24.0695 162.593L22.8878 165.495Z" fill="#2E7D32"/>
<path d="M38.2617 136.619L31.9426 148.72L31.2352 148.351L37.5543 136.249L38.2617 136.619Z" fill="#2E7D32"/>
<path d="M43.9242 115.282L46.5468 116.985L46.4151 117.188C45.5391 116.968 44.7554 116.981 44.0641 117.229C43.3729 117.477 42.8385 117.892 42.4609 118.474C42.1 119.03 41.9569 119.594 42.0317 120.168C42.1028 120.739 42.3683 121.283 42.8282 121.8C43.2881 122.317 43.8125 122.767 44.4014 123.149C45.1147 123.612 45.7948 123.934 46.4417 124.115C47.0887 124.296 47.6594 124.281 48.154 124.072C48.6509 123.859 49.0668 123.495 49.4016 122.979C49.518 122.8 49.6184 122.605 49.7029 122.395C49.7861 122.178 49.8553 121.948 49.9104 121.703L48.3631 120.698C48.0705 120.508 47.869 120.406 47.7588 120.392C47.6449 120.375 47.5116 120.408 47.359 120.491C47.2088 120.57 47.0755 120.7 46.9592 120.879L46.8345 121.071L46.6315 120.939L48.9786 117.323L49.1816 117.455C49.0218 117.741 48.9356 117.958 48.9229 118.106C48.9089 118.248 48.9487 118.391 49.0424 118.535C49.0906 118.613 49.25 118.74 49.5206 118.915L51.0679 119.92C50.9714 120.533 50.8087 121.132 50.58 121.716C50.3573 122.3 50.0667 122.868 49.7082 123.42C49.2499 124.126 48.7737 124.651 48.2796 124.996C47.7842 125.335 47.2647 125.582 46.7211 125.739C46.1762 125.89 45.6427 125.938 45.1208 125.885C44.4498 125.814 43.8015 125.575 43.1761 125.169C42.0568 124.442 41.3665 123.435 41.1052 122.148C40.8439 120.861 41.1003 119.621 41.8743 118.428C42.1142 118.059 42.3595 117.745 42.6103 117.487C42.7441 117.345 42.9968 117.14 43.3685 116.871C43.7389 116.597 43.9455 116.427 43.9882 116.361C44.0547 116.259 44.0798 116.14 44.0637 116.005C44.0438 115.867 43.9534 115.694 43.7924 115.485L43.9242 115.282Z" fill="#2E7D32"/>
<path d="M50.2011 107.581L53.1142 109.715L53.2186 109.572C53.551 109.118 53.6494 108.685 53.5139 108.272C53.3784 107.859 53.0533 107.421 52.5386 106.958L52.6855 106.757L56.4324 109.502L56.2855 109.702C55.8465 109.445 55.4465 109.29 55.0857 109.237C54.7274 109.18 54.4386 109.209 54.2192 109.324C53.9964 109.436 53.7599 109.663 53.51 110.004L55.5259 111.481C55.9199 111.77 56.1725 111.93 56.2837 111.963C56.3974 111.992 56.5159 111.982 56.6392 111.931C56.7625 111.881 56.8988 111.754 57.0483 111.55L57.3614 111.123C57.851 110.454 58.0878 109.806 58.072 109.178C58.0587 108.547 57.7999 107.911 57.2954 107.271L57.4385 107.076L59.4772 109.064L54.9472 115.249L54.7519 115.106L54.9259 114.869C55.0779 114.661 55.1633 114.467 55.1822 114.286C55.2 114.158 55.1671 114.026 55.0835 113.889C55.0274 113.789 54.82 113.607 54.4611 113.344L49.7538 109.897C49.4301 109.66 49.2249 109.523 49.1381 109.486C48.9892 109.431 48.8466 109.427 48.7102 109.473C48.5137 109.534 48.3305 109.681 48.1604 109.913L47.9865 110.151L47.7912 110.008L52.1782 104.018L54.2944 105.568L54.1475 105.769C53.5556 105.492 53.0788 105.364 52.7171 105.386C52.3579 105.404 52.0019 105.543 51.649 105.803C51.4413 105.954 51.1391 106.3 50.7423 106.842L50.2011 107.581Z" fill="#2E7D32"/>
<path d="M61.2369 92.6153L63.0957 94.1345L62.9467 94.3168C62.4296 94.0744 62.0243 93.9431 61.731 93.923C61.4343 93.9002 61.1364 93.958 60.8373 94.0965C60.6716 94.1752 60.4577 94.3749 60.1955 94.6956L59.7774 95.2072L65.0752 99.5373C65.4264 99.8243 65.661 99.9851 65.7792 100.02C65.9001 100.051 66.0398 100.038 66.1984 99.9822C66.3564 99.9199 66.5155 99.7907 66.6755 99.5949L66.8618 99.367L67.0492 99.5202L64.1101 103.116L63.9227 102.963L64.1089 102.735C64.2718 102.536 64.3674 102.347 64.3958 102.167C64.4203 102.041 64.3959 101.905 64.3225 101.761C64.2718 101.657 64.0742 101.465 63.7298 101.183L58.432 96.8532L58.0264 97.3496C57.6483 97.8122 57.4716 98.2282 57.4963 98.5976C57.5297 99.1149 57.7679 99.6194 58.2109 100.111L58.0536 100.303L56.1948 98.7842L61.2369 92.6153Z" fill="#2E7D32"/>
<path d="M79.5432 85.2453L79.7184 85.4123L76.5182 88.7691L76.343 88.6021L76.5462 88.389C76.7237 88.2028 76.8335 88.0213 76.8755 87.8445C76.9096 87.7203 76.894 87.5849 76.8288 87.4384C76.7862 87.3315 76.6039 87.1246 76.2819 86.8176L72.0586 82.7915C71.7304 82.4786 71.5087 82.3003 71.3935 82.2568C71.2783 82.2133 71.1396 82.2166 70.9773 82.2668C70.8149 82.3107 70.6479 82.4227 70.4764 82.6026L70.2733 82.8156L70.0981 82.6486L73.2983 79.2918L73.4735 79.4588L73.2703 79.6719C73.0928 79.8581 72.983 80.0396 72.941 80.2165C72.9069 80.3406 72.921 80.4776 72.9832 80.6272C73.0258 80.7342 73.2081 80.9411 73.5301 81.248L77.7533 85.2742C78.0816 85.5871 78.3033 85.7653 78.4185 85.8089C78.5367 85.8492 78.677 85.8474 78.8394 85.8034C79.0017 85.7533 79.1686 85.6383 79.3401 85.4583L79.5432 85.2453Z" fill="#2E7D32"/>
<path d="M79.5606 73.0412L86.5237 74.0056L83.8931 71.2445C83.5261 70.8593 83.2227 70.6514 82.9829 70.6209C82.6568 70.5822 82.3184 70.736 81.9677 71.0822L81.8007 70.907L83.9225 68.8855L84.0894 69.0607C83.851 69.3542 83.7115 69.5744 83.6709 69.7215C83.6305 69.8624 83.6436 70.0216 83.7102 70.199C83.777 70.3703 83.9548 70.6075 84.2436 70.9106L89.3378 76.2575L89.1768 76.4109L79.7396 75.2016L83.6291 79.284C83.981 79.6535 84.3023 79.8232 84.593 79.7932C84.8868 79.7602 85.1427 79.6399 85.3605 79.4324L85.5121 79.288L85.679 79.4632L83.401 81.6336L83.2341 81.4583C83.5847 81.1183 83.7618 80.811 83.7653 80.5366C83.7689 80.2621 83.6082 79.9544 83.2834 79.6134L78.9653 75.0811L78.6655 75.0414C78.3673 75.0003 78.1405 75.0025 77.9852 75.0481C77.8298 75.0937 77.6513 75.2066 77.4495 75.3868L77.2826 75.2115L79.5606 73.0412Z" fill="#2E7D32"/>
<path d="M100.333 54.9835L101.837 56.8553L101.653 57.0027C101.197 56.6583 100.828 56.4458 100.545 56.3653C100.26 56.2814 99.9565 56.2761 99.6352 56.3496C99.4569 56.3922 99.2062 56.5432 98.8832 56.8026L98.368 57.2163L102.652 62.5511C102.936 62.9047 103.133 63.1107 103.241 63.1691C103.353 63.2247 103.492 63.2415 103.659 63.2194C103.826 63.1912 104.009 63.0978 104.206 62.9395L104.435 62.7552L104.587 62.9439L100.966 65.852L100.814 65.6633L101.044 65.4789C101.244 65.3178 101.377 65.1524 101.442 64.9827C101.492 64.8641 101.497 64.7265 101.455 64.57C101.427 64.4583 101.273 64.2291 100.995 63.8823L96.7104 58.5474L96.2106 58.9488C95.7448 59.3229 95.4857 59.6932 95.4332 60.0597C95.3586 60.5727 95.487 61.1156 95.8184 61.6884L95.6246 61.8441L94.1214 59.9723L100.333 54.9835Z" fill="#2E7D32"/>
<path d="M108.733 48.5894C109.853 47.7256 111.025 47.3943 112.252 47.5956C113.482 47.7943 114.479 48.4295 115.245 49.5012C115.899 50.4168 116.206 51.4137 116.167 52.4919C116.116 53.9215 115.443 55.0989 114.148 56.024C112.849 56.9517 111.531 57.229 110.192 56.8559C109.135 56.5608 108.265 55.936 107.583 54.9814C106.818 53.9097 106.544 52.7574 106.762 51.5245C106.981 50.2856 107.638 49.3072 108.733 48.5894ZM109.04 48.8844C108.38 49.3559 108.119 50.0516 108.256 50.9717C108.371 51.7256 108.799 52.6206 109.539 53.6568C110.419 54.8882 111.285 55.6438 112.139 55.9236C112.735 56.1198 113.304 56.024 113.847 55.6362C114.212 55.3752 114.454 55.0685 114.572 54.7161C114.722 54.266 114.707 53.7304 114.526 53.1094C114.343 52.4848 113.964 51.7715 113.392 50.9695C112.71 50.015 112.111 49.365 111.597 49.0198C111.08 48.671 110.613 48.4979 110.197 48.5004C109.784 48.5004 109.399 48.6284 109.04 48.8844Z" fill="#2E7D32"/>
<path d="M117.574 42.6305L121.448 40.1897L121.577 40.3945L121.383 40.5165C121.092 40.7002 120.91 40.8582 120.839 40.9907C120.769 41.1171 120.744 41.2489 120.764 41.3862C120.787 41.5211 120.933 41.8025 121.203 42.2305L123.518 45.9055C123.941 46.577 124.271 46.9902 124.508 47.1452C124.748 47.2978 125.03 47.3728 125.353 47.3702C125.676 47.3677 126.015 47.2548 126.369 47.0317C126.775 46.776 127.063 46.4683 127.233 46.1085C127.405 45.7427 127.46 45.3551 127.398 44.9458C127.339 44.5341 127.059 43.9298 126.557 43.1328L124.629 40.0722C124.417 39.7364 124.231 39.5187 124.07 39.419C123.91 39.3192 123.758 39.2754 123.616 39.2875C123.397 39.3072 123.136 39.4124 122.833 39.603L122.704 39.3982L125.3 37.7629L125.429 37.9677L125.274 38.0653C125.064 38.1978 124.915 38.3507 124.828 38.5238C124.742 38.697 124.72 38.8883 124.765 39.0975C124.791 39.2458 124.901 39.4731 125.094 39.7793L126.889 42.6296C127.445 43.5114 127.787 44.1851 127.915 44.6506C128.047 45.1138 127.992 45.6514 127.748 46.2633C127.505 46.8753 126.994 47.4265 126.216 47.917C125.566 48.3261 125.01 48.5556 124.546 48.6053C123.914 48.6737 123.382 48.5861 122.951 48.3427C122.519 48.0992 122.107 47.6657 121.714 47.0422L119.399 43.3672C119.127 42.9355 118.934 42.6831 118.821 42.61C118.706 42.5333 118.569 42.5007 118.412 42.5123C118.254 42.524 118.018 42.6316 117.703 42.8352L117.574 42.6305Z" fill="#2E7D32"/>
<path d="M137.512 30.5794L139.002 33.2689L138.779 33.3925C138.222 32.7835 137.611 32.4189 136.947 32.2986C136.282 32.1783 135.659 32.2787 135.08 32.5999C134.595 32.8682 134.228 33.2536 133.978 33.7561C133.727 34.2585 133.634 34.7866 133.696 35.3403C133.775 36.0494 134.01 36.7569 134.4 37.4626C134.785 38.1569 135.223 38.7416 135.716 39.2166C136.206 39.6878 136.72 39.9668 137.256 40.0535C137.791 40.1363 138.355 40.013 138.95 39.6834C139.439 39.4129 139.826 39.0589 140.112 38.6213C140.402 38.1816 140.627 37.5757 140.788 36.8038L141.159 37.4733C140.975 38.1681 140.704 38.7495 140.345 39.2175C139.988 39.6796 139.494 40.085 138.865 40.4336C138.037 40.8921 137.209 41.1339 136.38 41.1591C135.556 41.1822 134.796 40.98 134.1 40.5526C133.409 40.123 132.869 39.5573 132.48 38.8554C132.07 38.1153 131.874 37.3067 131.891 36.4295C131.913 35.5502 132.15 34.7457 132.604 34.0161C133.061 33.2843 133.659 32.7135 134.399 32.3036C134.945 32.0014 135.587 31.8006 136.324 31.7012C136.751 31.6442 137.012 31.5892 137.108 31.5364C137.23 31.4688 137.31 31.3668 137.35 31.2305C137.39 31.0882 137.37 30.9124 137.289 30.703L137.512 30.5794Z" fill="#2E7D32"/>
<path d="M147.987 30.6482L149.176 33.1248C149.372 33.5336 149.517 33.7787 149.609 33.8602C149.705 33.9397 149.837 33.9876 150.005 34.004C150.174 34.0144 150.371 33.9659 150.595 33.8583L150.86 33.7308L150.965 33.949L146.785 35.9569L146.68 35.7388L146.945 35.6113C147.177 35.4999 147.344 35.369 147.446 35.2184C147.522 35.1143 147.555 34.9822 147.546 34.8221C147.544 34.707 147.446 34.449 147.254 34.048L144.728 28.7884C144.531 28.3795 144.387 28.1344 144.295 28.053C144.202 27.9715 144.071 27.9256 143.902 27.9151C143.734 27.8988 143.539 27.9444 143.314 28.052L143.049 28.1795L142.944 27.9613L147.125 25.9534L147.23 26.1715L146.964 26.299C146.732 26.4104 146.566 26.5413 146.464 26.6918C146.388 26.796 146.353 26.929 146.358 27.091C146.36 27.2061 146.457 27.4641 146.65 27.8651L147.737 30.1294L150.562 28.7728L149.474 26.5085C149.278 26.0997 149.134 25.8546 149.041 25.7732C148.949 25.6917 148.818 25.6458 148.648 25.6353C148.477 25.6208 148.279 25.6674 148.055 25.775L147.796 25.8997L147.691 25.6815L151.866 23.6764L151.971 23.8946L151.711 24.0192C151.475 24.1324 151.308 24.2634 151.21 24.412C151.135 24.5162 151.099 24.6492 151.105 24.8112C151.107 24.9263 151.204 25.1843 151.397 25.5853L153.923 30.845C154.119 31.2538 154.263 31.4989 154.356 31.5803C154.448 31.6618 154.58 31.7097 154.751 31.7241C154.921 31.7346 155.118 31.6861 155.342 31.5785L155.601 31.4538L155.706 31.672L151.531 33.6771L151.427 33.4589L151.686 33.3343C151.922 33.2211 152.089 33.0901 152.187 32.9415C152.262 32.8373 152.298 32.7043 152.292 32.5423C152.29 32.4272 152.193 32.1692 152 31.7682L150.811 29.2917L147.987 30.6482Z" fill="#2E7D32"/>
<path d="M178.77 19.5768L165.961 24.2994L165.685 23.5506L178.494 18.828L178.77 19.5768Z" fill="#2E7D32"/>
<path d="M192.068 9.69686L193.018 13.2145L193.264 13.148C193.643 13.0457 193.937 12.9053 194.147 12.7268C194.356 12.5484 194.506 12.3022 194.598 11.9885C194.693 11.6736 194.705 11.2798 194.631 10.8073L194.852 10.7476L196.013 15.0483L195.792 15.108C195.493 14.317 195.13 13.8414 194.702 13.6812C194.278 13.5156 193.841 13.4937 193.391 13.6153L193.144 13.6818L193.852 16.3026C193.97 16.7405 194.067 17.0079 194.143 17.1048C194.223 17.2007 194.344 17.2719 194.506 17.3186C194.67 17.36 194.873 17.3482 195.113 17.2835L195.397 17.2067L195.46 17.4404L190.982 18.6492L190.919 18.4155L191.203 18.3388C191.452 18.2717 191.64 18.1735 191.768 18.0442C191.861 17.9557 191.918 17.8319 191.938 17.6729C191.957 17.5593 191.909 17.2879 191.793 16.8584L190.272 11.2252C190.154 10.7874 190.057 10.5199 189.981 10.423C189.905 10.326 189.785 10.2569 189.62 10.2155C189.459 10.1688 189.258 10.1779 189.018 10.2427L188.734 10.3194L188.67 10.0857L195.895 8.13529L196.558 10.5919L196.299 10.6618C196.085 10.1009 195.818 9.71453 195.499 9.50258C195.184 9.2895 194.781 9.18806 194.292 9.19828C194.022 9.20332 193.546 9.29791 192.864 9.48204L192.068 9.69686Z" fill="#2E7D32"/>
<path d="M205.973 5.67418C207.344 5.32989 208.552 5.49512 209.595 6.16986C210.643 6.8437 211.304 7.82479 211.577 9.11313C211.81 10.2138 211.694 11.2505 211.227 12.2232C210.609 13.5133 209.521 14.3234 207.964 14.6536C206.403 14.9847 205.083 14.7117 204.006 13.8347C203.154 13.1414 202.607 12.2211 202.364 11.0735C202.091 9.78515 202.3 8.61952 202.993 7.5766C203.689 6.52851 204.682 5.89437 205.973 5.67418ZM206.137 6.06744C205.343 6.2357 204.826 6.76897 204.584 7.66727C204.388 8.40423 204.422 9.39556 204.686 10.6412C205 12.1216 205.492 13.1606 206.163 13.7584C206.63 14.1764 207.19 14.3162 207.843 14.1778C208.283 14.0846 208.627 13.9001 208.876 13.6244C209.194 13.2718 209.393 12.7747 209.476 12.1331C209.557 11.4873 209.496 10.6823 209.291 9.71816C209.048 8.5706 208.76 7.73574 208.426 7.21359C208.091 6.68717 207.733 6.34193 207.35 6.17785C206.972 6.01288 206.568 5.97607 206.137 6.06744Z" fill="#2E7D32"/>
<path d="M225.371 8.20761L225.515 11.3358L217.73 12.5328L217.693 12.2936L217.984 12.2488C218.239 12.2097 218.437 12.133 218.578 12.0186C218.681 11.941 218.751 11.8243 218.789 11.6685C218.82 11.5578 218.802 11.2826 218.734 10.8429L217.848 5.07584C217.779 4.62757 217.712 4.35105 217.647 4.24628C217.583 4.1415 217.471 4.05943 217.312 4.00007C217.156 3.93574 216.956 3.92246 216.71 3.96024L216.419 4.00497L216.382 3.76576L221.057 3.04699L221.093 3.28621L220.712 3.34486C220.458 3.38396 220.26 3.4607 220.119 3.57508C220.016 3.65265 219.943 3.76968 219.901 3.92617C219.87 4.03691 219.888 4.3121 219.955 4.75174L220.814 10.3378C220.883 10.7861 220.953 11.0687 221.024 11.1858C221.094 11.2985 221.21 11.3734 221.37 11.4106C221.484 11.4328 221.747 11.4121 222.161 11.3485L222.892 11.2361C223.357 11.1646 223.732 11.023 224.018 10.8115C224.303 10.6 224.53 10.3003 224.7 9.9124C224.874 9.52384 225.009 8.96916 225.106 8.24837L225.371 8.20761Z" fill="#2E7D32"/>
<path d="M238.788 6.71352L238.765 9.84494L230.929 10.6273L230.905 10.3865L231.197 10.3572C231.453 10.3317 231.655 10.2655 231.802 10.1588C231.909 10.0868 231.985 9.97399 232.031 9.82038C232.069 9.71148 232.065 9.43572 232.021 8.9931L231.441 3.18709C231.396 2.7358 231.344 2.45613 231.285 2.34807C231.226 2.24001 231.119 2.15213 230.963 2.08441C230.811 2.01192 230.612 1.98802 230.364 2.01271L230.071 2.04195L230.047 1.80112L234.753 1.33131L234.777 1.57214L234.393 1.61048C234.137 1.63604 233.936 1.70218 233.789 1.8089C233.682 1.88092 233.603 1.99394 233.553 2.14798C233.516 2.25688 233.519 2.53264 233.563 2.97526L234.125 8.59902C234.17 9.05031 234.225 9.33627 234.289 9.45691C234.353 9.57322 234.465 9.65416 234.622 9.69975C234.735 9.72797 234.999 9.72129 235.416 9.67971L236.151 9.60628C236.62 9.55949 237.002 9.43806 237.298 9.24197C237.594 9.04589 237.837 8.75867 238.028 8.38032C238.222 8.00153 238.387 7.45481 238.521 6.74016L238.788 6.71352Z" fill="#2E7D32"/>
<path d="M248.738 0.210828C250.147 0.0976428 251.311 0.459927 252.228 1.29768C253.151 2.13525 253.64 3.21191 253.697 4.52768C253.745 5.65174 253.459 6.65494 252.838 7.53726C252.016 8.70763 250.809 9.32713 249.219 9.39574C247.624 9.46453 246.368 8.97748 245.45 7.93458C244.725 7.11034 244.337 6.11223 244.286 4.94024C244.23 3.62447 244.629 2.50946 245.484 1.5952C246.344 0.676395 247.428 0.214938 248.738 0.210828ZM248.834 0.625701C248.024 0.660664 247.425 1.10116 247.038 1.9472C246.723 2.64171 246.593 3.62507 246.648 4.89727C246.713 6.40909 247.027 7.51515 247.59 8.21545C247.982 8.70487 248.512 8.9352 249.178 8.90644C249.627 8.88708 249.997 8.76199 250.288 8.53118C250.66 8.2358 250.939 7.77852 251.126 7.15936C251.313 6.53583 251.385 5.73175 251.343 4.7471C251.292 3.57511 251.145 2.70409 250.903 2.13402C250.66 1.55961 250.363 1.15992 250.013 0.934952C249.667 0.709799 249.274 0.606716 248.834 0.625701Z" fill="#2E7D32"/>
<path d="M272.411 0.283718L272.406 0.525691C272.24 0.535199 272.1 0.577969 271.984 0.654003C271.869 0.730036 271.767 0.847771 271.676 1.00721C271.649 1.05896 271.504 1.39389 271.242 2.01199L268.305 9.27012L268.05 9.26462L265.976 3.50144L263.433 9.16507L263.191 9.15985L260.43 1.85738C260.149 1.12289 259.952 0.678072 259.837 0.522938C259.723 0.367804 259.526 0.274149 259.248 0.241973L259.253 0L263.098 0.0829156L263.093 0.324889C262.784 0.326934 262.575 0.370427 262.469 0.455369C262.367 0.536044 262.314 0.6396 262.312 0.766037C262.308 0.931712 262.407 1.28499 262.609 1.82586L264.256 6.16657L265.722 2.83514L265.376 1.88551C265.186 1.36672 265.039 1.02113 264.934 0.848742C264.828 0.671997 264.705 0.545014 264.562 0.467794C264.424 0.390668 264.218 0.349143 263.943 0.343221L263.949 0.101247L268.245 0.193893L268.24 0.435866C267.939 0.433739 267.723 0.453065 267.591 0.493844C267.499 0.522389 267.426 0.573156 267.372 0.646146C267.318 0.714776 267.29 0.79487 267.288 0.886427C267.286 0.986704 267.378 1.29619 267.563 1.81489L269.087 6.04828L270.615 2.27981C270.776 1.89071 270.875 1.6246 270.913 1.48148C270.951 1.33835 270.972 1.20575 270.974 1.08368C270.978 0.90492 270.92 0.764088 270.8 0.661178C270.68 0.553909 270.448 0.492201 270.104 0.476055L270.109 0.234082L272.411 0.283718Z" fill="#2E7D32"/>
<path d="M285.248 1.2451L289.797 1.76791L289.769 2.00836L289.542 1.98222C289.2 1.94288 288.959 1.95257 288.821 2.01128C288.687 2.06616 288.585 2.15318 288.514 2.27235C288.448 2.39201 288.386 2.70312 288.328 3.20568L287.832 7.52072C287.741 8.30921 287.74 8.83799 287.828 9.10704C287.919 9.37659 288.092 9.61153 288.346 9.81186C288.599 10.0122 288.934 10.1363 289.35 10.1841C289.826 10.2388 290.244 10.1792 290.602 10.0053C290.964 9.82752 291.25 9.55963 291.458 9.20163C291.67 8.84414 291.83 8.19749 291.938 7.2617L292.351 3.668C292.396 3.27375 292.387 2.98741 292.324 2.80899C292.261 2.63057 292.171 2.50164 292.053 2.42222C291.869 2.30017 291.6 2.21873 291.244 2.1779L291.272 1.93745L294.32 2.28774L294.292 2.52818L294.11 2.50727C293.863 2.47889 293.652 2.50506 293.476 2.58579C293.3 2.66651 293.163 2.80228 293.067 2.99311C292.995 3.12527 292.938 3.37115 292.896 3.73073L292.512 7.07749C292.393 8.11293 292.238 8.8523 292.046 9.29559C291.859 9.73939 291.479 10.1237 290.906 10.4485C290.333 10.7734 289.59 10.8833 288.676 10.7782C287.913 10.6906 287.336 10.521 286.943 10.2696C286.408 9.92712 286.048 9.52581 285.864 9.06568C285.679 8.60556 285.629 8.00941 285.714 7.27724L286.209 2.96219C286.268 2.45531 286.276 2.13797 286.233 2.01019C286.191 1.87808 286.105 1.76723 285.975 1.67765C285.845 1.58807 285.593 1.52403 285.22 1.48554L285.248 1.2451Z" fill="#2E7D32"/>
<path d="M305.692 3.86732L305.275 6.79532L305.01 6.75105C305.008 5.99899 304.799 5.36042 304.382 4.83534C303.971 4.30669 303.482 3.99484 302.914 3.89982C302.475 3.82639 302.107 3.88636 301.81 4.07972C301.517 4.26951 301.345 4.51709 301.294 4.82246C301.262 5.01601 301.278 5.19561 301.343 5.36127C301.434 5.58429 301.6 5.81777 301.843 6.06169C302.021 6.23746 302.446 6.56718 303.116 7.05085C304.056 7.72541 304.667 8.31622 304.949 8.82328C305.226 9.32962 305.317 9.87096 305.221 10.4473C305.098 11.1785 304.707 11.7607 304.046 12.194C303.391 12.6237 302.624 12.7651 301.747 12.6183C301.471 12.5722 301.216 12.5007 300.98 12.4037C300.744 12.3068 300.454 12.1499 300.11 11.9332C299.918 11.8126 299.756 11.7412 299.622 11.7189C299.511 11.7001 299.385 11.7234 299.246 11.7885C299.107 11.8536 298.984 11.9679 298.877 12.1313L298.638 12.0913L299.191 8.78813L299.43 8.82808C299.463 9.78878 299.708 10.5593 300.164 11.1396C300.624 11.7163 301.166 12.0569 301.79 12.1613C302.272 12.2419 302.677 12.1748 303.004 11.9599C303.336 11.7458 303.532 11.4645 303.59 11.1161C303.624 10.9097 303.602 10.7003 303.523 10.4881C303.447 10.2765 303.312 10.066 303.118 9.85654C302.923 9.64276 302.566 9.34858 302.045 8.97398C301.315 8.44941 300.799 8.02033 300.496 7.68675C300.194 7.35317 299.977 7.00065 299.844 6.62919C299.716 6.25845 299.686 5.86878 299.755 5.46018C299.871 4.76341 300.227 4.2127 300.82 3.80804C301.414 3.40339 302.101 3.26621 302.879 3.39651C303.163 3.44402 303.432 3.52451 303.688 3.63796C303.881 3.7234 304.11 3.86121 304.374 4.05138C304.644 4.23797 304.837 4.34098 304.953 4.36041C305.065 4.37913 305.159 4.35948 305.235 4.30146C305.311 4.24344 305.399 4.08793 305.498 3.83492L305.692 3.86732Z" fill="#2E7D32"/>
<path d="M330.578 16.1007L317.364 12.6739L317.564 11.9014L330.779 15.3282L330.578 16.1007Z" fill="#2E7D32"/>
<path d="M352.642 16.8046L351.575 19.7436L351.348 19.661C351.365 18.7579 351.174 17.9976 350.777 17.38C350.379 16.7625 349.855 16.3354 349.203 16.0988C348.58 15.8726 347.997 15.8606 347.455 16.0628C346.915 16.2609 346.445 16.6423 346.045 17.207C345.645 17.7716 345.325 18.3839 345.086 19.0439C344.796 19.8432 344.635 20.5784 344.605 21.2494C344.575 21.9204 344.718 22.4733 345.033 22.9079C345.352 23.344 345.801 23.667 346.379 23.8768C346.58 23.9498 346.792 24.0037 347.016 24.0386C347.246 24.0709 347.486 24.0862 347.737 24.0846L348.367 22.3507C348.486 22.0228 348.54 21.8035 348.529 21.6928C348.52 21.5781 348.457 21.4557 348.342 21.3257C348.231 21.1973 348.075 21.0966 347.874 21.0236L347.659 20.9455L347.742 20.718L351.794 22.1891L351.711 22.4166C351.396 22.3255 351.165 22.2904 351.019 22.3113C350.877 22.3296 350.747 22.4007 350.628 22.5244C350.563 22.5889 350.475 22.7728 350.365 23.0762L349.736 24.8101C349.116 24.8544 348.496 24.831 347.875 24.7401C347.257 24.6547 346.638 24.4997 346.019 24.2749C345.228 23.9877 344.609 23.6423 344.161 23.2386C343.72 22.8324 343.361 22.3821 343.086 21.8879C342.816 21.391 342.648 20.8823 342.582 20.3619C342.501 19.692 342.587 19.0066 342.842 18.3057C343.297 17.0513 344.122 16.1517 345.318 15.6067C346.513 15.0618 347.779 15.0319 349.115 15.5171C349.529 15.6674 349.89 15.8356 350.198 16.0217C350.367 16.12 350.624 16.3199 350.969 16.6215C351.32 16.9205 351.532 17.0834 351.606 17.1102C351.72 17.1519 351.842 17.1496 351.97 17.1033C352.1 17.053 352.248 16.9258 352.415 16.722L352.642 16.8046Z" fill="#2E7D32"/>
<path d="M361.561 21.183L360.139 24.5022L360.302 24.5717C360.819 24.7932 361.263 24.7914 361.635 24.5662C362.006 24.3411 362.36 23.9256 362.695 23.3197L362.924 23.4175L361.095 27.6868L360.867 27.589C361.018 27.1033 361.079 26.6787 361.049 26.3151C361.024 25.9532 360.931 25.6784 360.769 25.4906C360.609 25.2988 360.335 25.1197 359.946 24.9532L358.962 27.2502C358.77 27.6991 358.67 27.9815 358.664 28.0971C358.661 28.2145 358.698 28.3276 358.774 28.4364C358.851 28.5451 359.006 28.6493 359.238 28.7489L359.725 28.9575C360.487 29.2837 361.172 29.3683 361.78 29.2112C362.392 29.0559 362.953 28.6604 363.462 28.0246L363.685 28.1199L362.208 30.5545L355.161 27.5363L355.256 27.3138L355.527 27.4297C355.763 27.531 355.972 27.5704 356.152 27.548C356.28 27.5366 356.402 27.4747 356.516 27.3624C356.601 27.2851 356.732 27.042 356.907 26.6331L359.204 21.2694C359.362 20.9006 359.449 20.6698 359.465 20.5771C359.485 20.4196 359.457 20.2796 359.381 20.1571C359.277 19.9796 359.093 19.8342 358.828 19.7209L358.558 19.605L358.653 19.3825L365.478 22.3054L364.445 24.7167L364.217 24.6188C364.353 23.9798 364.369 23.4865 364.267 23.1389C364.168 22.7931 363.952 22.4776 363.619 22.1925C363.425 22.0242 363.02 21.8079 362.403 21.5435L361.561 21.183Z" fill="#2E7D32"/>
<path d="M378.63 28.5588L377.569 30.7123L377.358 30.6083C377.477 30.0498 377.514 29.6254 377.467 29.335C377.423 29.0408 377.299 28.7636 377.097 28.5035C376.983 28.3599 376.74 28.1965 376.368 28.0134L375.776 27.7215L372.752 33.8594C372.552 34.2663 372.448 34.5311 372.441 34.6541C372.438 34.7789 372.481 34.9122 372.572 35.0541C372.668 35.1939 372.83 35.3197 373.057 35.4315L373.321 35.5616L373.214 35.7787L369.048 33.7264L369.155 33.5092L369.419 33.6393C369.65 33.753 369.856 33.8035 370.037 33.7907C370.166 33.786 370.292 33.7317 370.416 33.6276C370.506 33.5549 370.648 33.319 370.845 32.92L373.869 26.782L373.294 26.4988C372.758 26.2347 372.312 26.1565 371.958 26.2639C371.462 26.4131 371.024 26.7589 370.645 27.3014L370.422 27.1916L371.483 25.038L378.63 28.5588Z" fill="#2E7D32"/>
<path d="M389.939 44.7308L389.816 44.9392L385.824 42.5786L385.947 42.3703L386.2 42.5201C386.422 42.6511 386.623 42.7171 386.805 42.7182C386.934 42.7233 387.062 42.6776 387.19 42.5811C387.285 42.5154 387.445 42.2911 387.672 41.9082L390.641 36.8857C390.872 36.4953 390.996 36.2391 391.012 36.1171C391.029 35.9951 390.994 35.8607 390.909 35.7139C390.829 35.5656 390.683 35.4281 390.469 35.3016L390.215 35.1518L390.338 34.9435L394.331 37.304L394.207 37.5123L393.954 37.3625C393.733 37.2316 393.531 37.1655 393.349 37.1645C393.221 37.1593 393.09 37.2039 392.959 37.2982C392.864 37.3639 392.703 37.5882 392.477 37.9711L389.507 42.9936C389.276 43.384 389.153 43.6402 389.136 43.7622C389.124 43.8865 389.157 44.0227 389.237 44.1711C389.322 44.3178 389.472 44.4545 389.686 44.581L389.939 44.7308Z" fill="#2E7D32"/>
<path d="M401.832 41.9949L402.463 48.996L404.56 45.8105C404.853 45.3661 404.987 45.0236 404.962 44.783C404.926 44.4567 404.7 44.1617 404.284 43.8981L404.417 43.6959L406.865 45.307L406.732 45.5092C406.392 45.3431 406.146 45.2568 405.994 45.2505C405.847 45.2429 405.695 45.2915 405.537 45.3965C405.385 45.5002 405.195 45.7269 404.964 46.0766L400.904 52.2455L400.718 52.1233L399.768 42.6566L396.668 47.3666C396.388 47.7928 396.295 48.1441 396.389 48.4205C396.488 48.6994 396.663 48.9215 396.914 49.0869L397.089 49.202L396.956 49.4042L394.328 47.6744L394.461 47.4722C394.871 47.7371 395.21 47.8403 395.479 47.7819C395.747 47.7234 396.01 47.4975 396.269 47.1041L399.711 41.875L399.682 41.574C399.655 41.2742 399.601 41.0537 399.522 40.9127C399.442 40.7717 399.292 40.6232 399.071 40.4672L399.204 40.2651L401.832 41.9949Z" fill="#2E7D32"/>
<path d="M424.111 58.1597L422.626 60.0464L422.441 59.9008C422.674 59.3792 422.798 58.9716 422.812 58.678C422.83 58.3809 422.766 58.0841 422.622 57.7876C422.54 57.6235 422.337 57.4133 422.011 57.1571L421.492 56.7486L417.261 62.1258C416.981 62.4822 416.824 62.7198 416.792 62.8386C416.763 62.9601 416.778 63.0996 416.837 63.2571C416.902 63.4139 417.034 63.5705 417.233 63.7269L417.464 63.9089L417.315 64.0991L413.665 61.2272L413.814 61.037L414.046 61.219C414.248 61.3781 414.439 61.4702 414.619 61.4953C414.746 61.5175 414.881 61.4905 415.024 61.4144C415.126 61.3618 415.315 61.1608 415.59 60.8112L419.821 55.434L419.317 55.0375C418.848 54.6681 418.429 54.4992 418.06 54.5308C417.543 54.5738 417.043 54.8213 416.56 55.2733L416.365 55.1196L417.849 53.233L424.111 58.1597Z" fill="#2E7D32"/>
<path d="M432.234 64.9008C433.328 65.7964 433.916 66.8643 433.996 68.1044C434.08 69.3474 433.686 70.4626 432.815 71.4501C432.07 72.2937 431.168 72.8181 430.109 73.0232C428.705 73.2963 427.406 72.9062 426.213 71.853C425.016 70.7969 424.448 69.5748 424.51 68.1868C424.559 67.09 424.971 66.1019 425.748 65.2223C426.619 64.2348 427.68 63.7083 428.93 63.6426C430.187 63.5765 431.288 63.9959 432.234 64.9008ZM432.016 65.2666C431.408 64.7299 430.671 64.6322 429.806 64.9736C429.097 65.2557 428.322 65.8742 427.479 66.8289C426.478 67.9635 425.937 68.9783 425.857 69.8731C425.8 70.4976 426.022 71.0306 426.522 71.4721C426.859 71.7693 427.213 71.9357 427.582 71.9714C428.055 72.016 428.573 71.8802 429.137 71.5638C429.704 71.2441 430.314 70.7148 430.966 69.9759C431.742 69.0963 432.241 68.3669 432.461 67.7878C432.684 67.2054 432.747 66.7117 432.651 66.3068C432.558 65.9048 432.346 65.5581 432.016 65.2666Z" fill="#2E7D32"/>
<path d="M440.034 72.1694L443.285 75.3932L443.115 75.5651L442.952 75.4039C442.708 75.1614 442.513 75.0203 442.368 74.9809C442.229 74.9414 442.095 74.9466 441.965 74.9965C441.839 75.0495 441.598 75.2556 441.242 75.6148L438.184 78.6993C437.625 79.2629 437.297 79.6775 437.199 79.9431C437.105 80.2118 437.095 80.5033 437.171 80.8175C437.246 81.1317 437.432 81.4361 437.73 81.7309C438.07 82.0686 438.435 82.2798 438.824 82.3645C439.219 82.4491 439.609 82.4151 439.994 82.2623C440.382 82.1127 440.907 81.7033 441.571 81.0344L444.117 78.4656C444.397 78.1838 444.567 77.9533 444.628 77.7742C444.689 77.5951 444.697 77.4378 444.654 77.3023C444.585 77.0929 444.423 76.8623 444.169 76.6105L444.34 76.4387L446.519 78.5986L446.348 78.7705L446.218 78.6416C446.042 78.4666 445.859 78.3563 445.671 78.3109C445.483 78.2654 445.291 78.2878 445.098 78.3781C444.959 78.4373 444.762 78.5954 444.508 78.8524L442.136 81.2448C441.402 81.9849 440.823 82.47 440.398 82.7C439.977 82.9331 439.44 83.0002 438.789 82.9012C438.138 82.8023 437.486 82.4288 436.833 81.781C436.288 81.2406 435.939 80.7503 435.786 80.31C435.576 79.7096 435.542 79.1716 435.681 78.6962C435.821 78.2207 436.151 77.7212 436.67 77.1979L439.728 74.1134C440.087 73.7511 440.289 73.5066 440.335 73.38C440.384 73.2502 440.385 73.1099 440.338 72.959C440.291 72.8081 440.133 72.6022 439.863 72.3413L440.034 72.1694Z" fill="#2E7D32"/>
<path d="M456.272 88.8758L453.987 90.9336L453.817 90.7441C454.284 90.0645 454.502 89.3872 454.469 88.7124C454.436 88.0375 454.198 87.4539 453.754 86.9614C453.384 86.5499 452.925 86.279 452.38 86.1487C451.834 86.0183 451.298 86.046 450.773 86.2316C450.1 86.4683 449.463 86.8566 448.864 87.3966C448.274 87.9278 447.803 88.4869 447.452 89.0738C447.103 89.6577 446.947 90.2208 446.984 90.7631C447.024 91.3025 447.271 91.8248 447.727 92.3303C448.1 92.745 448.533 93.0423 449.023 93.2223C449.517 93.4055 450.158 93.4884 450.946 93.4708L450.378 93.983C449.66 93.961 449.032 93.828 448.495 93.5838C447.964 93.34 447.458 92.9508 446.976 92.4162C446.343 91.7132 445.921 90.9609 445.709 90.1594C445.501 89.3611 445.526 88.5751 445.786 87.8012C446.048 87.0306 446.478 86.3767 447.074 85.8397C447.702 85.2734 448.446 84.8999 449.304 84.7193C450.166 84.5419 451.003 84.5917 451.816 84.8687C452.632 85.149 453.323 85.6035 453.89 86.232C454.307 86.6953 454.647 87.275 454.911 87.9712C455.063 88.3743 455.175 88.6164 455.248 88.6974C455.341 88.8011 455.459 88.8566 455.601 88.864C455.748 88.8717 455.915 88.8125 456.101 88.6863L456.272 88.8758Z" fill="#2E7D32"/>
<path d="M458.567 99.0956L456.423 100.813C456.069 101.096 455.862 101.292 455.804 101.401C455.748 101.512 455.731 101.652 455.753 101.819C455.781 101.986 455.873 102.167 456.028 102.361L456.212 102.591L456.023 102.742L453.124 99.122L453.313 98.9707L453.497 99.2004C453.658 99.4013 453.823 99.5343 453.993 99.5996C454.111 99.6499 454.247 99.6526 454.401 99.6076C454.513 99.5796 454.742 99.4266 455.09 99.1485L459.644 95.5011C459.998 95.2175 460.204 95.0216 460.263 94.9133C460.321 94.805 460.336 94.6671 460.308 94.4995C460.287 94.3327 460.198 94.1523 460.042 93.9582L459.858 93.7285L460.047 93.5772L462.947 97.1972L462.758 97.3485L462.574 97.1187C462.413 96.9179 462.248 96.7848 462.078 96.7195C461.959 96.6692 461.822 96.6648 461.665 96.7065C461.554 96.7345 461.324 96.8875 460.977 97.1655L459.016 98.7357L460.975 101.181L462.936 99.6112C463.29 99.3277 463.496 99.1318 463.554 99.0234C463.613 98.9151 463.628 98.7772 463.6 98.6097C463.576 98.4394 463.486 98.2573 463.33 98.0633L463.15 97.8386L463.339 97.6873L466.234 101.302L466.045 101.453L465.865 101.229C465.702 101.025 465.537 100.892 465.37 100.83C465.251 100.779 465.114 100.775 464.957 100.817C464.845 100.845 464.616 100.998 464.269 101.276L459.714 104.923C459.36 105.207 459.154 105.403 459.096 105.511C459.037 105.619 459.02 105.758 459.045 105.929C459.073 106.096 459.164 106.277 459.32 106.471L459.5 106.696L459.311 106.847L456.416 103.232L456.605 103.081L456.785 103.305C456.948 103.51 457.113 103.643 457.28 103.705C457.399 103.755 457.536 103.759 457.693 103.718C457.805 103.69 458.034 103.537 458.381 103.259L460.526 101.541L458.567 99.0956Z" fill="#2E7D32"/>
<path d="M476.297 126.589L468.807 115.175L469.474 114.737L476.964 126.151L476.297 126.589Z" fill="#2E7D32"/>
<path d="M492.172 141.928L489.407 143.389L489.294 143.175C489.913 142.517 490.283 141.826 490.403 141.101C490.523 140.377 490.421 139.708 490.097 139.095C489.788 138.509 489.364 138.109 488.827 137.895C488.293 137.679 487.689 137.645 487.013 137.795C486.338 137.945 485.69 138.184 485.069 138.512C484.317 138.91 483.705 139.347 483.232 139.824C482.759 140.3 482.493 140.806 482.435 141.34C482.379 141.877 482.494 142.418 482.782 142.962C482.882 143.151 483.003 143.333 483.145 143.51C483.294 143.688 483.461 143.86 483.648 144.028L485.279 143.166C485.588 143.003 485.775 142.877 485.841 142.787C485.912 142.696 485.948 142.564 485.95 142.39C485.953 142.22 485.906 142.041 485.806 141.852L485.699 141.649L485.913 141.536L487.927 145.347L487.713 145.461C487.541 145.182 487.393 145.001 487.271 144.917C487.154 144.836 487.01 144.801 486.838 144.813C486.747 144.817 486.558 144.895 486.273 145.045L484.642 145.907C484.153 145.524 483.71 145.091 483.31 144.606C482.909 144.127 482.555 143.597 482.247 143.015C481.854 142.271 481.627 141.599 481.567 140.999C481.513 140.402 481.549 139.827 481.677 139.276C481.811 138.727 482.028 138.237 482.329 137.807C482.718 137.256 483.243 136.807 483.902 136.458C485.082 135.834 486.297 135.722 487.549 136.121C488.801 136.52 489.759 137.348 490.423 138.605C490.629 138.994 490.783 139.361 490.887 139.706C490.946 139.892 491.002 140.213 491.055 140.668C491.114 141.125 491.162 141.389 491.198 141.458C491.255 141.566 491.347 141.646 491.473 141.698C491.603 141.747 491.798 141.753 492.059 141.714L492.172 141.928Z" fill="#2E7D32"/>
<path d="M495.84 151.161L492.557 152.666L492.631 152.826C492.866 153.338 493.196 153.635 493.622 153.718C494.049 153.8 494.59 153.73 495.245 153.506L495.349 153.732L491.127 155.667L491.023 155.441C491.461 155.183 491.792 154.909 492.014 154.62C492.239 154.335 492.354 154.069 492.36 153.821C492.371 153.572 492.288 153.255 492.112 152.87L489.84 153.912C489.396 154.115 489.133 154.257 489.05 154.338C488.969 154.424 488.92 154.532 488.904 154.664C488.888 154.796 488.933 154.977 489.038 155.207L489.259 155.689C489.604 156.442 490.055 156.965 490.611 157.257C491.169 157.553 491.85 157.636 492.654 157.507L492.755 157.727L490.026 158.54L486.831 151.571L487.051 151.47L487.174 151.737C487.281 151.971 487.409 152.14 487.558 152.245C487.66 152.323 487.792 152.358 487.952 152.352C488.067 152.352 488.327 152.259 488.731 152.074L494.035 149.642C494.4 149.475 494.62 149.363 494.694 149.305C494.814 149.201 494.888 149.079 494.914 148.937C494.956 148.736 494.917 148.504 494.797 148.243L494.674 147.975L494.894 147.874L497.988 154.623L495.604 155.716L495.5 155.49C496.03 155.108 496.374 154.754 496.531 154.428C496.691 154.105 496.742 153.726 496.687 153.291C496.656 153.037 496.501 152.604 496.221 151.994L495.84 151.161Z" fill="#2E7D32"/>
<path d="M503.534 168.089L501.302 168.972L501.215 168.753C501.679 168.42 501.991 168.13 502.151 167.884C502.316 167.636 502.411 167.347 502.435 167.018C502.447 166.836 502.377 166.551 502.225 166.166L501.982 165.552L495.619 168.069C495.197 168.236 494.943 168.363 494.855 168.449C494.769 168.539 494.712 168.668 494.683 168.833C494.661 169.002 494.696 169.204 494.789 169.439L494.898 169.712L494.673 169.801L492.964 165.483L493.189 165.394L493.297 165.668C493.392 165.907 493.511 166.083 493.654 166.195C493.752 166.278 493.882 166.322 494.044 166.329C494.159 166.335 494.423 166.256 494.837 166.092L501.199 163.575L500.964 162.979C500.744 162.423 500.466 162.066 500.132 161.908C499.664 161.685 499.107 161.648 498.462 161.795L498.371 161.564L500.603 160.681L503.534 168.089Z" fill="#2E7D32"/>
<path d="M501.053 187.667L500.822 187.738L499.449 183.308L499.68 183.237L499.767 183.518C499.844 183.764 499.949 183.948 500.083 184.071C500.174 184.161 500.3 184.214 500.46 184.228C500.574 184.243 500.844 184.184 501.269 184.053L506.842 182.326C507.275 182.191 507.539 182.085 507.633 182.005C507.727 181.926 507.792 181.803 507.827 181.637C507.868 181.474 507.851 181.273 507.778 181.036L507.691 180.755L507.922 180.683L509.294 185.113L509.063 185.185L508.976 184.904C508.9 184.658 508.795 184.474 508.661 184.351C508.569 184.26 508.443 184.206 508.282 184.187C508.168 184.173 507.898 184.231 507.473 184.363L501.9 186.09C501.466 186.224 501.203 186.331 501.109 186.41C501.016 186.494 500.949 186.617 500.908 186.78C500.873 186.946 500.892 187.148 500.966 187.386L501.053 187.667Z" fill="#2E7D32"/>
<path d="M511.702 193.627L507.468 199.238L511.161 198.286C511.676 198.153 512.005 197.989 512.149 197.795C512.341 197.529 512.372 197.158 512.24 196.683L512.475 196.623L513.207 199.461L512.972 199.521C512.832 199.17 512.708 198.941 512.599 198.834C512.496 198.73 512.35 198.664 512.163 198.635C511.981 198.61 511.687 198.65 511.282 198.755L504.13 200.599L504.075 200.383L509.728 192.731L504.268 194.139C503.774 194.266 503.469 194.464 503.354 194.733C503.24 195.005 503.22 195.287 503.295 195.579L503.347 195.781L503.113 195.842L502.327 192.795L502.562 192.735C502.688 193.207 502.87 193.511 503.108 193.648C503.346 193.785 503.693 193.794 504.149 193.676L510.211 192.113L510.391 191.871C510.573 191.63 510.681 191.431 510.717 191.273C510.753 191.116 510.741 190.905 510.682 190.641L510.916 190.58L511.702 193.627Z" fill="#2E7D32"/>
<path d="M517.354 220.565L514.987 220.966L514.947 220.734C515.47 220.504 515.835 220.285 516.043 220.077C516.256 219.869 516.408 219.606 516.501 219.29C516.55 219.113 516.541 218.821 516.471 218.412L516.361 217.761L509.615 218.904C509.168 218.979 508.892 219.05 508.788 219.117C508.685 219.187 508.603 219.301 508.541 219.457C508.484 219.617 508.477 219.822 508.519 220.071L508.568 220.362L508.329 220.402L507.554 215.823L507.792 215.782L507.842 216.073C507.885 216.326 507.964 216.523 508.081 216.662C508.16 216.764 508.278 216.835 508.435 216.874C508.546 216.904 508.821 216.882 509.26 216.808L516.006 215.665L515.899 215.033C515.799 214.444 515.602 214.037 515.307 213.813C514.896 213.498 514.359 213.345 513.697 213.356L513.656 213.111L516.023 212.71L517.354 220.565Z" fill="#2E7D32"/>
<path d="M518.846 231.016C519.055 232.414 518.773 233.6 518 234.573C517.227 235.55 516.186 236.112 514.877 236.258C513.759 236.383 512.739 236.166 511.816 235.607C510.592 234.866 509.892 233.705 509.715 232.123C509.538 230.537 509.938 229.25 510.916 228.263C511.688 227.483 512.658 227.028 513.824 226.898C515.132 226.751 516.272 227.074 517.243 227.865C518.218 228.66 518.752 229.71 518.846 231.016ZM518.438 231.14C518.348 230.334 517.868 229.767 516.997 229.439C516.283 229.172 515.293 229.11 514.028 229.251C512.524 229.419 511.442 229.808 510.781 230.417C510.32 230.842 510.126 231.386 510.201 232.049C510.25 232.495 510.4 232.856 510.651 233.131C510.971 233.481 511.446 233.729 512.076 233.873C512.711 234.017 513.518 234.034 514.498 233.925C515.664 233.794 516.523 233.588 517.075 233.307C517.631 233.025 518.01 232.702 518.21 232.338C518.411 231.977 518.487 231.578 518.438 231.14Z" fill="#2E7D32"/>
<path d="M519.744 241.639L519.988 246.212L519.746 246.225L519.734 245.996C519.716 245.652 519.666 245.417 519.585 245.29C519.509 245.167 519.406 245.081 519.276 245.031C519.147 244.986 518.83 244.977 518.325 245.004L513.988 245.235C513.195 245.278 512.674 245.364 512.423 245.496C512.173 245.631 511.97 245.841 511.815 246.124C511.659 246.408 511.593 246.759 511.615 247.177C511.641 247.656 511.769 248.057 512.001 248.381C512.237 248.709 512.548 248.946 512.936 249.091C513.324 249.24 513.988 249.29 514.929 249.24L518.541 249.047C518.937 249.026 519.218 248.969 519.384 248.877C519.549 248.786 519.661 248.675 519.72 248.545C519.809 248.344 519.845 248.064 519.825 247.707L520.067 247.694L520.231 250.758L519.989 250.771L519.979 250.588C519.966 250.34 519.905 250.136 519.796 249.976C519.687 249.815 519.53 249.704 519.326 249.64C519.184 249.591 518.932 249.576 518.57 249.596L515.206 249.775C514.166 249.831 513.411 249.801 512.942 249.687C512.473 249.576 512.03 249.266 511.615 248.755C511.199 248.245 510.966 247.53 510.917 246.611C510.876 245.845 510.947 245.247 511.129 244.818C511.377 244.233 511.713 243.811 512.136 243.552C512.559 243.294 513.138 243.145 513.874 243.106L518.211 242.874C518.721 242.847 519.035 242.802 519.154 242.739C519.277 242.675 519.372 242.572 519.439 242.429C519.505 242.285 519.526 242.026 519.502 241.652L519.744 241.639Z" fill="#2E7D32"/>
<path d="M520.555 264.923L517.481 264.913L517.482 264.658C518.285 264.469 518.901 264.113 519.33 263.591C519.758 263.069 519.974 262.476 519.976 261.814C519.978 261.26 519.82 260.751 519.503 260.288C519.186 259.825 518.771 259.486 518.257 259.27C517.599 258.994 516.867 258.854 516.06 258.852C515.266 258.849 514.542 258.947 513.887 259.146C513.237 259.345 512.743 259.657 512.406 260.084C512.074 260.51 511.906 261.063 511.904 261.744C511.902 262.302 512.023 262.812 512.266 263.275C512.509 263.743 512.928 264.235 513.524 264.751L512.759 264.749C512.241 264.25 511.865 263.73 511.632 263.188C511.402 262.651 511.288 262.023 511.291 261.303C511.293 260.357 511.486 259.516 511.867 258.78C512.249 258.049 512.796 257.483 513.508 257.084C514.22 256.69 514.977 256.494 515.779 256.496C516.625 256.499 517.427 256.721 518.185 257.164C518.942 257.611 519.529 258.21 519.945 258.961C520.362 259.717 520.569 260.518 520.566 261.364C520.564 261.988 520.427 262.646 520.155 263.338C519.996 263.739 519.917 263.994 519.917 264.103C519.916 264.242 519.966 264.363 520.066 264.463C520.17 264.568 520.334 264.636 520.556 264.667L520.555 264.923Z" fill="#2E7D32"/>
<path d="M515.393 274.036L512.651 273.869C512.198 273.841 511.914 273.848 511.798 273.889C511.681 273.934 511.575 274.026 511.479 274.164C511.388 274.307 511.334 274.503 511.319 274.751L511.301 275.044L511.059 275.03L511.342 270.401L511.584 270.415L511.566 270.709C511.55 270.966 511.583 271.175 511.665 271.338C511.719 271.455 511.818 271.548 511.963 271.618C512.064 271.672 512.337 271.713 512.781 271.74L518.605 272.096C519.058 272.124 519.342 272.117 519.458 272.076C519.574 272.035 519.678 271.943 519.77 271.8C519.866 271.662 519.921 271.469 519.936 271.221L519.954 270.927L520.196 270.942L519.913 275.571L519.671 275.556L519.689 275.262C519.705 275.005 519.672 274.796 519.59 274.634C519.536 274.517 519.437 274.421 519.293 274.347C519.191 274.292 518.919 274.252 518.475 274.225L515.968 274.071L515.776 277.199L518.284 277.352C518.736 277.38 519.021 277.373 519.137 277.332C519.253 277.291 519.357 277.199 519.449 277.056C519.545 276.914 519.6 276.718 519.615 276.47L519.633 276.183L519.875 276.198L519.592 280.82L519.35 280.805L519.368 280.518C519.384 280.257 519.351 280.047 519.269 279.89C519.215 279.773 519.116 279.677 518.972 279.603C518.87 279.548 518.597 279.508 518.153 279.481L512.33 279.125C511.877 279.097 511.592 279.104 511.476 279.145C511.36 279.186 511.254 279.277 511.158 279.42C511.066 279.563 511.013 279.758 510.998 280.007L510.98 280.294L510.739 280.279L511.021 275.656L511.263 275.671L511.245 275.959C511.229 276.22 511.262 276.429 511.344 276.587C511.398 276.704 511.497 276.8 511.641 276.874C511.743 276.928 512.016 276.969 512.46 276.996L515.202 277.164L515.393 274.036Z" fill="#2E7D32"/>
<path d="M510.066 306.314L512.182 292.827L512.97 292.95L510.855 306.437L510.066 306.314Z" fill="#2E7D32"/>
<path d="M512.216 322.74L508.681 321.856L508.62 322.104C508.524 322.484 508.504 322.81 508.558 323.079C508.611 323.349 508.753 323.6 508.983 323.833C509.211 324.07 509.55 324.271 509.998 324.438L509.942 324.66L505.621 323.579L505.676 323.357C506.513 323.48 507.105 323.395 507.453 323.1C507.805 322.81 508.037 322.439 508.15 321.986L508.212 321.739L505.578 321.08C505.138 320.97 504.858 320.924 504.736 320.943C504.613 320.967 504.492 321.037 504.373 321.156C504.256 321.28 504.168 321.462 504.108 321.703L504.036 321.989L503.801 321.93L504.927 317.431L505.162 317.49L505.09 317.775C505.028 318.025 505.022 318.237 505.073 318.411C505.104 318.536 505.185 318.646 505.314 318.741C505.404 318.813 505.664 318.903 506.096 319.011L511.756 320.427C512.196 320.537 512.477 320.583 512.599 320.564C512.72 320.545 512.839 320.473 512.956 320.35C513.075 320.231 513.165 320.051 513.226 319.81L513.297 319.525L513.532 319.583L511.716 326.843L509.247 326.225L509.312 325.965C509.907 326.051 510.374 326.006 510.715 325.831C511.054 325.659 511.339 325.357 511.569 324.925C511.695 324.687 511.845 324.225 512.016 323.54L512.216 322.74Z" fill="#2E7D32"/>
<path d="M508.956 336.843C508.589 338.208 507.856 339.182 506.758 339.765C505.66 340.352 504.481 340.451 503.223 340.062C502.148 339.729 501.299 339.122 500.677 338.241C499.852 337.073 499.674 335.728 500.144 334.208C500.616 332.683 501.497 331.663 502.788 331.15C503.808 330.744 504.878 330.714 505.999 331.061C507.257 331.45 508.173 332.201 508.746 333.314C509.322 334.432 509.392 335.608 508.956 336.843ZM508.533 336.794C508.772 336.019 508.559 335.307 507.892 334.659C507.344 334.128 506.462 333.675 505.245 333.299C503.799 332.852 502.652 332.776 501.803 333.07C501.211 333.275 500.816 333.696 500.619 334.334C500.486 334.763 500.479 335.153 500.599 335.505C500.752 335.954 501.089 336.371 501.609 336.756C502.133 337.141 502.866 337.48 503.808 337.771C504.929 338.117 505.798 338.272 506.417 338.235C507.039 338.199 507.516 338.055 507.845 337.8C508.173 337.55 508.403 337.215 508.533 336.794Z" fill="#2E7D32"/>
<path d="M497.294 352.55L494.492 351.151L497.239 343.77L497.466 343.855L497.363 344.13C497.274 344.372 497.244 344.582 497.275 344.761C497.293 344.888 497.361 345.007 497.478 345.116C497.56 345.197 497.809 345.315 498.226 345.47L503.694 347.505C504.119 347.663 504.393 347.74 504.516 347.734C504.639 347.729 504.765 347.671 504.895 347.561C505.027 347.457 505.136 347.288 505.223 347.055L505.325 346.779L505.552 346.864L503.903 351.296L503.676 351.212L503.811 350.85C503.9 350.609 503.93 350.399 503.899 350.22C503.881 350.092 503.814 349.972 503.698 349.859C503.616 349.777 503.367 349.659 502.951 349.504L497.654 347.533C497.229 347.375 496.948 347.298 496.811 347.303C496.678 347.309 496.557 347.374 496.446 347.495C496.371 347.584 496.261 347.824 496.115 348.217L495.857 348.909C495.693 349.351 495.634 349.748 495.68 350.1C495.725 350.452 495.876 350.796 496.132 351.134C496.387 351.475 496.805 351.863 497.388 352.299L497.294 352.55Z" fill="#2E7D32"/>
<path d="M492.063 364.995L489.339 363.45L492.474 356.224L492.696 356.321L492.579 356.591C492.476 356.827 492.436 357.035 492.457 357.215C492.468 357.344 492.53 357.465 492.641 357.58C492.718 357.666 492.961 357.797 493.369 357.975L498.722 360.297C499.138 360.477 499.407 360.568 499.53 360.569C499.654 360.57 499.783 360.519 499.918 360.416C500.055 360.319 500.173 360.156 500.272 359.928L500.389 359.658L500.611 359.754L498.729 364.093L498.507 363.997L498.661 363.643C498.763 363.407 498.803 363.198 498.782 363.018C498.771 362.89 498.711 362.766 498.601 362.647C498.524 362.561 498.281 362.43 497.873 362.253L492.688 360.004C492.272 359.823 491.996 359.732 491.859 359.73C491.726 359.729 491.601 359.787 491.484 359.902C491.405 359.987 491.282 360.221 491.115 360.605L490.821 361.283C490.634 361.715 490.554 362.108 490.581 362.462C490.608 362.816 490.74 363.168 490.978 363.519C491.214 363.873 491.611 364.283 492.17 364.749L492.063 364.995Z" fill="#2E7D32"/>
<path d="M492.895 376.852C492.308 378.138 491.424 378.978 490.246 379.371C489.065 379.769 487.886 379.672 486.709 379.08C485.704 378.575 484.968 377.836 484.499 376.864C483.878 375.576 483.925 374.22 484.639 372.798C485.356 371.372 486.393 370.512 487.751 370.219C488.825 369.987 489.885 370.134 490.933 370.661C492.11 371.252 492.889 372.144 493.271 373.337C493.655 374.535 493.53 375.707 492.895 376.852ZM492.486 376.734C492.85 376.009 492.757 375.272 492.207 374.522C491.754 373.909 490.958 373.316 489.82 372.744C488.468 372.065 487.349 371.8 486.464 371.951C485.845 372.055 485.386 372.405 485.087 373.001C484.885 373.402 484.814 373.786 484.874 374.153C484.951 374.621 485.214 375.088 485.664 375.553C486.117 376.02 486.784 376.475 487.665 376.918C488.713 377.444 489.545 377.74 490.161 377.806C490.781 377.874 491.275 377.809 491.642 377.613C492.007 377.421 492.288 377.128 492.486 376.734Z" fill="#2E7D32"/>
<path d="M481.299 397.491L481.09 397.369C481.163 397.219 481.194 397.076 481.184 396.938C481.173 396.801 481.121 396.653 481.025 396.497C480.994 396.448 480.772 396.158 480.359 395.628L475.451 389.527L475.58 389.307L481.624 390.303L477.917 385.324L478.039 385.115L485.761 386.261C486.539 386.374 487.024 386.418 487.215 386.393C487.407 386.369 487.584 386.243 487.748 386.016L487.957 386.138L486.011 389.456L485.802 389.334C485.951 389.062 486.015 388.859 485.992 388.725C485.972 388.596 485.907 388.5 485.798 388.436C485.655 388.352 485.298 388.267 484.727 388.18L480.134 387.504L482.33 390.406L483.327 390.567C483.873 390.654 484.246 390.694 484.448 390.686C484.654 390.68 484.825 390.634 484.962 390.547C485.096 390.464 485.233 390.304 485.372 390.067L485.581 390.19L483.407 393.897L483.198 393.774C483.347 393.513 483.435 393.314 483.464 393.179C483.484 393.085 483.475 392.996 483.437 392.914C483.404 392.833 483.347 392.77 483.268 392.724C483.182 392.673 482.867 392.602 482.324 392.511L477.884 391.78L480.431 394.95C480.692 395.28 480.876 395.497 480.983 395.6C481.089 395.702 481.195 395.785 481.301 395.847C481.455 395.937 481.606 395.955 481.754 395.9C481.906 395.848 482.073 395.675 482.255 395.383L482.464 395.505L481.299 397.491Z" fill="#2E7D32"/>
<path d="M474.207 408.234L471.534 411.952L471.338 411.81L471.471 411.625C471.672 411.345 471.781 411.13 471.797 410.981C471.814 410.837 471.788 410.706 471.718 410.586C471.646 410.469 471.405 410.264 470.994 409.968L467.467 407.433C466.823 406.97 466.362 406.711 466.084 406.657C465.804 406.606 465.514 406.642 465.216 406.766C464.918 406.89 464.646 407.122 464.402 407.461C464.122 407.851 463.971 408.244 463.948 408.642C463.927 409.045 464.022 409.425 464.233 409.781C464.442 410.141 464.929 410.595 465.693 411.145L468.631 413.256C468.953 413.488 469.207 413.62 469.394 413.652C469.58 413.684 469.737 413.667 469.864 413.603C470.06 413.502 470.262 413.307 470.471 413.016L470.667 413.157L468.877 415.649L468.68 415.507L468.787 415.359C468.932 415.157 469.012 414.959 469.028 414.766C469.043 414.573 468.991 414.388 468.871 414.211C468.791 414.083 468.604 413.914 468.31 413.702L465.575 411.736C464.728 411.128 464.158 410.632 463.864 410.249C463.568 409.87 463.417 409.35 463.413 408.692C463.408 408.033 463.674 407.331 464.211 406.583C464.659 405.96 465.089 405.538 465.499 405.318C466.059 405.017 466.585 404.898 467.077 404.962C467.568 405.025 468.113 405.272 468.712 405.702L472.239 408.237C472.653 408.535 472.926 408.696 473.058 408.721C473.194 408.749 473.333 408.728 473.475 408.658C473.616 408.588 473.795 408.399 474.01 408.092L474.207 408.234Z" fill="#2E7D32"/>
<path d="M461.958 424.81L459.604 423.02L459.771 422.81C460.429 423.175 461.089 423.303 461.75 423.195C462.412 423.094 462.923 422.818 463.282 422.369C463.56 422.021 463.687 421.671 463.663 421.316C463.64 420.968 463.508 420.698 463.266 420.504C463.113 420.382 462.948 420.309 462.771 420.285C462.532 420.255 462.247 420.287 461.916 420.38C461.676 420.45 461.181 420.66 460.432 421.01C459.385 421.502 458.572 421.748 457.992 421.747C457.414 421.743 456.897 421.559 456.441 421.194C455.862 420.73 455.544 420.105 455.487 419.317C455.431 418.535 455.681 417.797 456.237 417.102C456.411 416.884 456.598 416.696 456.798 416.537C456.997 416.378 457.276 416.202 457.632 416.007C457.831 415.898 457.973 415.791 458.057 415.685C458.128 415.596 458.169 415.476 458.18 415.322C458.191 415.169 458.151 415.006 458.06 414.833L458.212 414.644L460.827 416.736L460.676 416.925C459.82 416.486 459.028 416.325 458.3 416.44C457.572 416.561 457.01 416.869 456.615 417.363C456.31 417.744 456.171 418.13 456.199 418.521C456.225 418.915 456.375 419.223 456.651 419.444C456.814 419.574 457.008 419.657 457.232 419.691C457.454 419.728 457.703 419.713 457.981 419.645C458.262 419.579 458.694 419.41 459.274 419.138C460.088 418.756 460.714 418.514 461.153 418.412C461.592 418.311 462.005 418.293 462.394 418.358C462.78 418.427 463.135 418.591 463.459 418.849C464.011 419.291 464.318 419.869 464.383 420.585C464.447 421.301 464.232 421.967 463.739 422.583C463.559 422.808 463.358 423.004 463.134 423.172C462.966 423.299 462.734 423.432 462.439 423.57C462.145 423.715 461.961 423.833 461.887 423.925C461.816 424.013 461.788 424.105 461.801 424.2C461.815 424.294 461.908 424.447 462.08 424.657L461.958 424.81Z" fill="#2E7D32"/>
<path d="M439.151 440.585L448.581 430.714L449.158 431.265L439.728 441.137L439.151 440.585Z" fill="#2E7D32"/>
<path d="M427.788 459.511L425.741 457.148L425.924 456.989C426.704 457.444 427.461 457.648 428.194 457.602C428.927 457.556 429.555 457.306 430.08 456.852C430.581 456.418 430.875 455.915 430.962 455.343C431.053 454.774 430.949 454.178 430.65 453.554C430.352 452.929 429.973 452.352 429.513 451.821C428.956 451.178 428.392 450.68 427.821 450.327C427.25 449.974 426.698 449.829 426.164 449.893C425.628 449.959 425.127 450.194 424.662 450.597C424.501 450.736 424.35 450.896 424.211 451.074C424.071 451.259 423.94 451.461 423.819 451.681L425.027 453.076C425.255 453.34 425.421 453.494 425.522 453.538C425.627 453.586 425.764 453.591 425.934 453.554C426.1 453.519 426.264 453.432 426.426 453.292L426.599 453.142L426.757 453.325L423.499 456.147L423.34 455.964C423.573 455.734 423.716 455.549 423.77 455.411C423.822 455.279 423.824 455.13 423.774 454.966C423.749 454.878 423.631 454.712 423.42 454.468L422.212 453.073C422.475 452.511 422.798 451.981 423.18 451.483C423.556 450.984 423.992 450.519 424.49 450.088C425.126 449.537 425.73 449.164 426.3 448.97C426.87 448.783 427.438 448.689 428.004 448.689C428.569 448.696 429.095 448.797 429.582 448.993C430.207 449.248 430.763 449.657 431.251 450.221C432.125 451.23 432.508 452.389 432.402 453.698C432.296 455.007 431.705 456.127 430.63 457.058C430.298 457.346 429.975 457.58 429.662 457.758C429.494 457.858 429.194 457.985 428.763 458.139C428.331 458.3 428.085 458.406 428.026 458.457C427.934 458.537 427.876 458.644 427.854 458.779C427.835 458.916 427.874 459.108 427.971 459.353L427.788 459.511Z" fill="#2E7D32"/>
<path d="M419.62 465.167L417.413 462.309L417.274 462.417C416.828 462.761 416.613 463.15 416.629 463.584C416.645 464.018 416.835 464.529 417.201 465.117L417.004 465.269L414.167 461.592L414.363 461.441C414.714 461.809 415.055 462.069 415.387 462.221C415.715 462.375 416.001 462.427 416.243 462.378C416.489 462.331 416.779 462.179 417.114 461.921L415.587 459.943C415.288 459.556 415.09 459.331 414.993 459.269C414.892 459.209 414.775 459.187 414.642 459.201C414.51 459.215 414.344 459.299 414.143 459.454L413.724 459.777C413.068 460.284 412.661 460.84 412.502 461.448C412.339 462.058 412.411 462.741 412.718 463.495L412.527 463.643L411.12 461.168L417.189 456.483L417.337 456.675L417.104 456.855C416.9 457.012 416.764 457.175 416.696 457.343C416.643 457.461 416.638 457.597 416.68 457.752C416.706 457.864 416.855 458.096 417.127 458.448L420.692 463.067C420.937 463.385 421.097 463.573 421.17 463.632C421.298 463.726 421.433 463.77 421.577 463.764C421.783 463.759 422 463.669 422.228 463.493L422.461 463.313L422.609 463.505L416.731 468.041L415.129 465.965L415.325 465.813C415.817 466.243 416.24 466.498 416.593 466.578C416.943 466.66 417.324 466.625 417.735 466.473C417.977 466.386 418.363 466.137 418.895 465.727L419.62 465.167Z" fill="#2E7D32"/>
<path d="M404.863 476.481L403.499 474.506L403.693 474.372C404.122 474.748 404.475 474.987 404.752 475.088C405.03 475.192 405.333 475.219 405.658 475.169C405.839 475.14 406.1 475.007 406.441 474.772L406.985 474.396L403.097 468.766C402.84 468.393 402.659 468.173 402.555 468.107C402.447 468.043 402.31 468.017 402.142 468.027C401.973 468.043 401.784 468.123 401.576 468.266L401.334 468.433L401.196 468.234L405.018 465.596L405.156 465.795L404.913 465.962C404.702 466.108 404.557 466.264 404.48 466.428C404.421 466.543 404.407 466.68 404.438 466.839C404.458 466.952 404.594 467.192 404.847 467.558L408.734 473.189L409.262 472.824C409.753 472.485 410.039 472.134 410.117 471.772C410.229 471.266 410.14 470.715 409.851 470.12L410.056 469.979L411.42 471.954L404.863 476.481Z" fill="#2E7D32"/>
<path d="M385.231 478.48L385.109 478.271L389.115 475.934L389.237 476.144L388.983 476.292C388.76 476.421 388.604 476.565 388.515 476.724C388.448 476.833 388.425 476.968 388.447 477.127C388.458 477.241 388.576 477.491 388.8 477.875L391.74 482.915C391.968 483.307 392.132 483.54 392.23 483.613C392.329 483.687 392.463 483.723 392.633 483.719C392.801 483.722 392.993 483.661 393.207 483.536L393.462 483.388L393.584 483.597L389.577 485.933L389.456 485.724L389.71 485.576C389.932 485.446 390.088 485.302 390.177 485.144C390.245 485.034 390.269 484.899 390.251 484.738C390.24 484.623 390.122 484.374 389.898 483.989L386.958 478.949C386.73 478.557 386.566 478.325 386.468 478.251C386.365 478.179 386.23 478.142 386.062 478.139C385.892 478.142 385.7 478.207 385.485 478.332L385.231 478.48Z" fill="#2E7D32"/>
<path d="M381.826 490.199L375.404 487.34L377.165 490.723C377.411 491.195 377.644 491.478 377.866 491.574C378.169 491.702 378.537 491.648 378.97 491.413L379.082 491.628L376.482 492.981L376.37 492.766C376.681 492.55 376.876 492.377 376.956 492.247C377.034 492.123 377.065 491.967 377.051 491.778C377.034 491.595 376.929 491.317 376.736 490.946L373.326 484.395L373.523 484.293L382.254 488.074L379.651 483.072C379.415 482.62 379.153 482.368 378.866 482.316C378.574 482.266 378.295 482.31 378.028 482.449L377.843 482.546L377.731 482.331L380.522 480.878L380.634 481.093C380.202 481.323 379.947 481.569 379.867 481.831C379.788 482.094 379.857 482.434 380.074 482.852L382.964 488.405L383.241 488.526C383.516 488.648 383.735 488.709 383.897 488.709C384.059 488.708 384.261 488.649 384.505 488.532L384.617 488.747L381.826 490.199Z" fill="#2E7D32"/>
<path d="M356.857 501.781L355.932 499.565L356.15 499.475C356.492 499.932 356.788 500.239 357.037 500.395C357.288 500.554 357.578 500.644 357.907 500.662C358.09 500.671 358.373 500.595 358.755 500.436L359.365 500.181L356.73 493.867C356.555 493.448 356.424 493.196 356.336 493.11C356.244 493.025 356.115 492.971 355.949 492.946C355.78 492.926 355.579 492.965 355.345 493.063L355.074 493.176L354.98 492.953L359.267 491.164L359.36 491.387L359.088 491.501C358.851 491.6 358.677 491.722 358.567 491.867C358.486 491.967 358.444 492.098 358.441 492.26C358.437 492.375 358.521 492.638 358.692 493.048L361.327 499.363L361.919 499.116C362.47 498.886 362.822 498.602 362.974 498.264C363.188 497.792 363.215 497.235 363.056 496.593L363.285 496.497L364.21 498.713L356.857 501.781Z" fill="#2E7D32"/>
<path d="M347.012 505.592C345.697 506.111 344.478 506.104 343.356 505.57C342.23 505.038 341.448 504.15 341.01 502.908C340.636 501.847 340.617 500.804 340.954 499.779C341.399 498.42 342.373 497.476 343.874 496.946C345.379 496.416 346.723 496.515 347.905 497.245C348.839 497.822 349.501 498.664 349.891 499.77C350.329 501.012 350.272 502.195 349.721 503.319C349.166 504.449 348.263 505.206 347.012 505.592ZM346.799 505.223C347.564 504.953 348.008 504.358 348.132 503.435C348.23 502.679 348.068 501.701 347.645 500.5C347.141 499.073 346.519 498.106 345.776 497.6C345.258 497.247 344.685 497.181 344.056 497.402C343.632 497.552 343.315 497.779 343.103 498.085C342.834 498.476 342.7 498.995 342.702 499.641C342.705 500.292 342.87 501.083 343.198 502.012C343.588 503.118 343.982 503.909 344.38 504.383C344.78 504.862 345.181 505.158 345.581 505.271C345.978 505.386 346.384 505.37 346.799 505.223Z" fill="#2E7D32"/>
<path d="M336.865 508.863L332.466 510.132L332.399 509.9L332.619 509.836C332.95 509.741 333.168 509.639 333.273 509.532C333.375 509.43 333.436 509.31 333.455 509.173C333.47 509.037 333.408 508.726 333.268 508.24L332.064 504.066C331.844 503.304 331.641 502.815 331.457 502.601C331.268 502.387 331.018 502.237 330.707 502.15C330.396 502.063 330.039 502.077 329.637 502.193C329.176 502.326 328.814 502.542 328.551 502.84C328.284 503.144 328.124 503.501 328.07 503.911C328.012 504.323 328.113 504.981 328.374 505.887L329.377 509.362C329.487 509.743 329.606 510.004 329.732 510.145C329.859 510.285 329.992 510.369 330.132 510.397C330.348 510.439 330.628 510.41 330.972 510.311L331.039 510.544L328.091 511.394L328.024 511.162L328.2 511.111C328.439 511.042 328.624 510.936 328.756 510.794C328.887 510.652 328.96 510.474 328.976 510.261C328.992 510.111 328.95 509.862 328.849 509.514L327.915 506.278C327.626 505.276 327.485 504.534 327.491 504.051C327.493 503.57 327.695 503.069 328.099 502.548C328.502 502.028 329.146 501.64 330.03 501.385C330.768 501.172 331.366 501.106 331.825 501.187C332.451 501.297 332.938 501.529 333.285 501.882C333.632 502.236 333.908 502.767 334.112 503.475L335.317 507.648C335.458 508.139 335.573 508.435 335.661 508.536C335.751 508.642 335.873 508.711 336.027 508.744C336.182 508.776 336.439 508.738 336.798 508.63L336.865 508.863Z" fill="#2E7D32"/>
<path d="M314.365 514.905L313.68 511.908L313.929 511.851C314.295 512.591 314.78 513.111 315.385 513.411C315.991 513.711 316.616 513.787 317.263 513.64C317.803 513.516 318.262 513.248 318.642 512.835C319.022 512.421 319.259 511.94 319.353 511.391C319.474 510.688 319.445 509.943 319.265 509.157C319.088 508.383 318.829 507.699 318.488 507.106C318.148 506.517 317.732 506.107 317.241 505.875C316.75 505.647 316.173 505.609 315.51 505.76C314.966 505.884 314.496 506.117 314.1 506.458C313.699 506.8 313.314 507.319 312.946 508.016L312.775 507.27C313.144 506.654 313.566 506.17 314.041 505.82C314.513 505.476 315.099 505.223 315.801 505.063C316.723 504.852 317.586 504.85 318.389 505.056C319.188 505.262 319.862 505.668 320.411 506.271C320.956 506.876 321.318 507.569 321.497 508.352C321.685 509.176 321.649 510.008 321.389 510.846C321.124 511.684 320.672 512.391 320.034 512.966C319.392 513.542 318.659 513.925 317.834 514.113C317.226 514.252 316.554 514.267 315.818 514.157C315.391 514.094 315.125 514.074 315.019 514.098C314.883 514.129 314.777 514.205 314.702 514.325C314.623 514.45 314.594 514.625 314.613 514.848L314.365 514.905Z" fill="#2E7D32"/>
<path d="M304.321 511.931L303.866 509.222C303.791 508.775 303.72 508.499 303.654 508.395C303.584 508.292 303.47 508.209 303.314 508.147C303.154 508.09 302.951 508.082 302.706 508.123L302.416 508.172L302.376 507.933L306.95 507.165L306.99 507.404L306.699 507.452C306.446 507.495 306.249 507.575 306.109 507.691C306.008 507.77 305.939 507.888 305.903 508.044C305.873 508.155 305.895 508.43 305.969 508.869L306.936 514.623C307.011 515.07 307.082 515.346 307.148 515.45C307.214 515.553 307.327 515.634 307.487 515.691C307.643 515.753 307.844 515.764 308.089 515.722L308.379 515.674L308.419 515.912L303.846 516.681L303.806 516.442L304.096 516.393C304.35 516.351 304.546 516.271 304.686 516.155C304.788 516.076 304.859 515.958 304.898 515.801C304.928 515.69 304.907 515.415 304.833 514.976L304.417 512.499L301.327 513.018L301.743 515.495C301.818 515.943 301.889 516.218 301.955 516.322C302.021 516.426 302.134 516.506 302.294 516.564C302.454 516.625 302.657 516.635 302.902 516.594L303.186 516.546L303.226 516.785L298.659 517.552L298.619 517.314L298.903 517.266C299.161 517.223 299.358 517.143 299.493 517.028C299.595 516.949 299.666 516.83 299.705 516.673C299.735 516.562 299.714 516.287 299.64 515.849L298.673 510.094C298.598 509.647 298.527 509.372 298.461 509.268C298.395 509.164 298.282 509.081 298.121 509.02C297.961 508.963 297.759 508.955 297.513 508.996L297.23 509.044L297.189 508.805L301.757 508.037L301.797 508.276L301.513 508.324C301.255 508.367 301.058 508.447 300.923 508.562C300.821 508.641 300.75 508.759 300.71 508.916C300.68 509.028 300.702 509.302 300.776 509.741L301.231 512.451L304.321 511.931Z" fill="#2E7D32"/>
<path d="M271.674 514.022L285.291 513.041L285.348 513.837L271.732 514.818L271.674 514.022Z" fill="#2E7D32"/>
</svg>
