<svg width="32" height="32" viewBox="0 0 32 32" fill="none" xmlns="http://www.w3.org/2000/svg">
<rect x="0.5" y="0.5" width="31" height="31" rx="15.5" fill="white"/>
<rect x="0.5" y="0.5" width="31" height="31" rx="15.5" stroke="#003399"/>
<path d="M16.0175 27C16.0175 27 11.5006 23.9444 10.1786 22.7222C8.85661 21.5 8.14052 20.5556 8.03035 19.1667C8.03035 19.1667 7.8651 17.3333 8.30577 16C8.74644 14.6111 9.35237 14 9.73795 13.3889C10.1786 12.7778 15.6319 5.38889 16.0175 5C16.0175 5 19.3776 9.33333 22.1318 13.3333C22.1318 13.3333 23.3988 15 23.6191 16C23.8394 16.8889 24.1148 17.7778 23.9496 19.1667C23.8394 20.2222 23.7293 21.1111 21.8013 22.7222C21.8013 22.7222 18.276 25.6111 16.0175 27ZM9.68287 18.4444C9.68287 20.2778 10.6193 21.1111 11.1701 21.5556C11.721 22 14.8057 24.2778 14.8057 24.2778V22.6667C14.8608 22.1111 14.3099 21.5 14.3099 21.5C11.9964 18.8889 10.1786 16.1111 10.1786 16.1111C10.1786 16.1111 9.68287 16.6111 9.68287 18.4444ZM21.8013 16.1111C21.8013 16.1111 19.9836 18.8889 17.6149 21.5C17.6149 21.5 17.0641 22.1111 17.1192 22.6667V24.2778C17.1192 24.2778 20.2039 22 20.7547 21.5556C21.3056 21.1111 22.242 20.2778 22.242 18.4444C22.2971 16.6111 21.8013 16.1111 21.8013 16.1111ZM19.9836 16.1111C21.0301 14.7778 20.2039 13.6111 20.2039 13.6111L16.0175 7.77778C16.0175 7.77778 12.4371 12.5556 11.7761 13.5556C11.115 14.5556 11.5557 15.3333 12.0515 16.1111C12.5472 16.8889 16.0175 20.8889 16.0175 20.8889C16.0175 20.8889 18.937 17.4444 19.9836 16.1111Z" fill="#003399"/>
</svg>
